<svg xmlns="http://www.w3.org/2000/svg" xmlns:xlink="http://www.w3.org/1999/xlink" width="227" height="234" viewBox="0 0 227 234">
  <defs>
    <clipPath id="clip-path">
      <rect id="Rectangle_13" data-name="Rectangle 13" width="227" height="233" rx="10" transform="translate(1029 226)" fill="rgba(218,216,255,0.39)"/>
    </clipPath>
  </defs>
  <g id="Hairun" transform="translate(-1029 -226)">
    <rect id="Fond_blue" width="227" height="234" rx="10" transform="translate(1029 226)" fill="#f9f8ff"/>
    <g id="Groupe_de_masques_1" data-name="Groupe de masques 1" clip-path="url(#clip-path)">
      <g id="LogoHairun" transform="translate(1078.853 267.997)">
        <path id="Tracé_18774" data-name="Tracé 18774" d="M407.327,198.476c-.152,0-.3,0-.455.008.129,0,.258-.012.388-.012C407.283,198.473,407.3,198.476,407.327,198.476Z" transform="translate(-323.668 -170.806)" fill="#050505" opacity="0.65"/>
        <path id="Tracé_18775" data-name="Tracé 18775" d="M371.7,232.735,320.61,266.787l-6.642,4.426a14.73,14.73,0,0,0,4.592-10.7V210.542a18.989,18.989,0,0,0-29.079-16.085c-.307.187-.614.393-.907.6l-.04.034-7.956,5.313V155.3a14.747,14.747,0,0,0-6.322-12.121l46.1,30.71-5.066,3.385-12.041,8.049-10.96,7.315a18.989,18.989,0,0,1,25.8,5.417c.067.108.141.206.206.307.034.046.067.093.1.147a19.157,19.157,0,0,0,33.44-3.647L371.7,208.1a14.791,14.791,0,0,1,0,24.631Z" transform="translate(-251.028 -140.516)" fill="#003e5a"/>
        <path id="Tracé_18776" data-name="Tracé 18776" d="M309.723,360.464,274.257,384.1a14.768,14.768,0,0,0,6.321-12.121V300.973c.166.115.334.227.494.347a18.952,18.952,0,0,1,7.943,15.439v30.176a14.769,14.769,0,0,0,20.712,13.529Z" transform="translate(-251.028 -226.95)" fill="#003e5a"/>
        <path id="Tracé_18777" data-name="Tracé 18777" d="M373.663,232.05a19.162,19.162,0,0,1-33.44,3.645c-.034-.053-.067-.1-.1-.147-.066-.1-.139-.2-.206-.307a18.989,18.989,0,0,0-25.8-5.414l10.96-7.315,12.041-8.049,5.066-3.385.261.174Z" transform="translate(-272.862 -177.711)" fill="#003e5a"/>
        <path id="Tracé_18778" data-name="Tracé 18778" d="M252.442,197.186l-21.252,14.2.014.019a18.951,18.951,0,0,0-8.311,15.7v-75.03a14.618,14.618,0,0,1,.174-2.25c.032-.246.08-.486.126-.727s.108-.48.168-.715c.12-.475.267-.935.427-1.389.086-.227.173-.454.267-.673s.194-.441.294-.654.216-.427.324-.635c.1-.187.206-.374.314-.553a1.079,1.079,0,0,0,.073-.12c.093-.154.187-.3.288-.448.034-.053.066-.1.1-.147.074-.108.154-.216.234-.324.1-.139.2-.273.307-.408a14.671,14.671,0,0,1,11.02-5.713c.216-.014.432-.019.654-.019h.066c.233,0,.468.007.694.019.187.007.368.019.553.04a1.958,1.958,0,0,1,.28.027h.027a13.715,13.715,0,0,1,1.356.216,13.172,13.172,0,0,1,1.367.355c.141.04.28.086.427.133s.307.108.461.166a13.516,13.516,0,0,1,2.016.948,11.742,11.742,0,0,1,1.209.757,14.747,14.747,0,0,1,6.321,12.121Z" transform="translate(-222.894 -137.3)" fill="#f8ae1e"/>
        <path id="Tracé_18779" data-name="Tracé 18779" d="M252.441,297.093v71a14.768,14.768,0,0,1-6.321,12.121c-.021.013-.04.026-.067.047-.206.141-.432.288-.649.414-.167.1-.324.2-.494.294a13.521,13.521,0,0,1-2.016.947c-.12.048-.24.086-.36.134-.387.133-.782.253-1.175.353-.24.059-.475.12-.721.166-.441.093-.9.16-1.356.216a14.363,14.363,0,0,1-1.622.086c-.216,0-.432-.006-.654-.019a14.685,14.685,0,0,1-10.567-5.16c-.154-.181-.307-.368-.453-.553a7.15,7.15,0,0,1-.461-.627,4.011,4.011,0,0,1-.24-.355,14.643,14.643,0,0,1-1.5-2.984c-.16-.454-.307-.915-.427-1.389a14.014,14.014,0,0,1-.368-2c-.019-.187-.04-.374-.053-.561-.014-.166-.027-.339-.034-.507-.008-.208-.014-.421-.014-.628V312.879a19,19,0,0,1,18.989-18.989c.24,0,.488.006.728.014s.486.026.728.04c.2.019.393.034.587.059.241.019.468.048.7.08l.234.041a.153.153,0,0,0,.053.006c.181.026.361.059.534.093h.014c.181.04.368.073.547.12.126.021.246.053.368.08.147.04.294.073.446.108l.614.181c.086.026.173.053.253.08a1.85,1.85,0,0,1,.181.053c.174.059.355.12.528.187l.166.061c.174.066.347.133.513.206a.628.628,0,0,1,.133.053c.16.066.314.126.468.206a3.076,3.076,0,0,1,.3.133c.187.086.381.181.568.281.16.08.307.16.46.24a1.654,1.654,0,0,1,.154.086c.179.108.366.216.547.324.019,0,.027.008.048.02.126.081.254.153.374.24.1.061.193.12.288.18A.081.081,0,0,0,252.441,297.093Z" transform="translate(-222.893 -223.071)" fill="#b72c2e"/>
        <path id="Tracé_18780" data-name="Tracé 18780" d="M300.477,269.139V319.1a14.73,14.73,0,0,1-4.592,10.7,14.508,14.508,0,0,1-4.245,2.827A14.769,14.769,0,0,1,270.929,319.1V288.923a18.988,18.988,0,0,0-7.943-15.439c-.16-.12-.324-.234-.494-.347-.006-.007-.019-.013-.026-.02-.093-.059-.187-.12-.288-.181-.12-.086-.246-.16-.373-.24a.073.073,0,0,0-.048-.019c-.181-.108-.368-.216-.547-.324a1.682,1.682,0,0,0-.154-.087c-.154-.081-.3-.16-.461-.24-.187-.1-.381-.193-.568-.281a3.055,3.055,0,0,0-.3-.133c-.154-.08-.307-.141-.468-.206a.627.627,0,0,0-.133-.053c-.166-.074-.339-.141-.514-.206l-.166-.061c-.173-.066-.354-.127-.528-.187a1.846,1.846,0,0,0-.181-.053l-.253-.08-.614-.181c-.154-.04-.3-.073-.446-.108-.12-.027-.24-.059-.368-.08-.181-.048-.368-.08-.547-.12H255.5c-.173-.034-.354-.067-.534-.093a.152.152,0,0,1-.053-.007l-.234-.041c-.234-.032-.461-.059-.7-.08-.194-.026-.387-.04-.587-.059-.241-.014-.488-.034-.728-.04s-.488-.014-.728-.014a18.875,18.875,0,0,0-10.679,3.291l-.014-.021,21.252-14.2,7.956-5.313.04-.034.907-.6a18.989,18.989,0,0,1,29.079,16.085Z" transform="translate(-232.943 -199.114)" fill="#e0373b"/>
        <path id="Tracé_18781" data-name="Tracé 18781" d="M406.882,199.182c-.151,0-.3,0-.454.008.129,0,.258-.012.388-.012C406.838,199.178,406.86,199.182,406.882,199.182Z" transform="translate(-323.425 -171.192)" fill="#401a57" opacity="0.65"/>
        <path id="Tracé_18782" data-name="Tracé 18782" d="M375.1,218.14a19.155,19.155,0,0,1-34.874,10.933c-.034-.053-.067-.1-.1-.147-.066-.1-.139-.2-.206-.307a18.989,18.989,0,0,0-25.8-5.414l10.96-7.315,12.041-8.049,5.066-3.385,1.394-.935,1.49-1,.047-.027.9-.6a18.958,18.958,0,0,1,9.365-2.9h.181c.147,0,.3-.008.454-.008A19.149,19.149,0,0,1,375.1,218.14Z" transform="translate(-272.862 -171.089)" fill="#f8ae1e"/>
      </g>
    </g>
  </g>
</svg>
