<svg xmlns="http://www.w3.org/2000/svg" xmlns:xlink="http://www.w3.org/1999/xlink" width="227" height="234" viewBox="0 0 227 234">
  <defs>
    <clipPath id="clip-path">
      <rect id="Rectangle_10" data-name="Rectangle 10" width="226.5" height="233" rx="10" fill="#f1f0ff"/>
    </clipPath>
  </defs>
  <g id="telma" transform="translate(-123 -226)">
    <rect id="Fond_blue" width="226.5" height="234" rx="10" transform="translate(123.5 226)" fill="#f7ff10"/>
    <g id="Groupe_de_masques_2" data-name="Groupe de masques 2" transform="translate(123 227)" clip-path="url(#clip-path)">
      <g id="logo-telma-light" transform="translate(23.778 92.426)">
        <path id="Tracé_55" data-name="Tracé 55" d="M57.407,86.307h-12.6l2.021-10.239h37.46L82.335,86.307H69.4l-6.535,35.163H50.872Z" transform="translate(-44.808 -73.239)" fill="#006935"/>
        <path id="Tracé_56" data-name="Tracé 56" d="M109.079,122.426c-4.851,2.493-10.78,2.9-13.879,2.9-10.106,0-16.035-4.985-16.035-14.82,0-10.172,7.883-19.939,20.886-19.939,7.007,0,13.205,3.436,13.205,10.845,0,7.882-7.614,11.317-22.773,10.913a4.686,4.686,0,0,0,1.28,2.021c1.415,1.212,3.638,1.751,6.4,1.751a23.888,23.888,0,0,0,10.241-2.155Zm-7.209-21.489c0-.943-1.213-1.953-3.234-1.953-4.716,0-6.737,3.1-7.007,4.715,7.95,0,10.241-.741,10.241-2.695Z" transform="translate(-52.082 -76.282)" fill="#006935"/>
        <path id="Tracé_57" data-name="Tracé 57" d="M123.95,120.719l9.23-48.232h11.992l-9.23,48.232Z" transform="translate(-61.563 -72.487)" fill="#006935"/>
        <path id="Tracé_58" data-name="Tracé 58" d="M147.539,124.514l3.908-21.623c.876-4.715,1.415-8.555,1.819-11.519h10.241l-.539,5.322h.067a14.146,14.146,0,0,1,11.858-6.13c6.131,0,8.422,3.907,8.625,6.13a14.249,14.249,0,0,1,11.722-6.13c6.132,0,8.691,3.907,8.691,9.5a44.516,44.516,0,0,1-.472,5.322l-3.5,19.131H188.435l3.1-17.245a20.627,20.627,0,0,0,.4-3.57c0-2.021-.943-3.57-2.83-3.57-3.368,0-6.062,4.917-7.209,11.249l-2.426,13.136h-11.52l3.166-17.245a20.816,20.816,0,0,0,.4-3.368c0-2.29-.808-3.772-2.628-3.772-3.5,0-6.333,4.917-7.479,11.249l-2.358,13.136Z" transform="translate(-66.556 -76.282)" fill="#006935"/>
        <path id="Tracé_59" data-name="Tracé 59" d="M245.636,124.514c.135-1.954.27-3.907.338-5.86h-.135a12.175,12.175,0,0,1-11.117,6.669c-6.2,0-11.117-4.648-11.117-12.327,0-11.317,7.68-22.432,25.536-22.432A44.37,44.37,0,0,1,261.6,92.517l-3.5,17.042a84.8,84.8,0,0,0-1.28,14.955H245.636Zm2.426-24.655a13.772,13.772,0,0,0-2.291-.2c-5.525,0-9.432,6.063-9.432,11.249,0,3.3,1.684,4.85,3.638,4.85,2.223,0,5.39-1.954,6.938-10.441Z" transform="translate(-82.66 -76.282)" fill="#006935"/>
      </g>
    </g>
  </g>
</svg>
