<svg xmlns="http://www.w3.org/2000/svg" width="38.716" height="21.862" viewBox="0 0 38.716 21.862">
  <g id="arrow_right_icon" transform="translate(-413.784 -635.569)">
    <path id="Icon_ionic-ios-arrow-forward" data-name="Icon ionic-ios-arrow-forward" d="M19.978,17.123,11.705,8.857a1.556,1.556,0,0,1,0-2.207,1.575,1.575,0,0,1,2.213,0l9.373,9.367a1.559,1.559,0,0,1,.046,2.154L13.925,27.6A1.563,1.563,0,0,1,11.712,25.4Z" transform="translate(428.753 629.373)" fill="#fff"/>
    <path id="Tracé_141" data-name="Tracé 141" d="M40.335,1.75H5.37A1.75,1.75,0,0,1,3.62,0,1.75,1.75,0,0,1,5.37-1.75H40.335A1.75,1.75,0,0,1,42.085,0,1.75,1.75,0,0,1,40.335,1.75Z" transform="translate(410.165 646.5)" fill="#fff"/>
  </g>
</svg>
