<svg xmlns="http://www.w3.org/2000/svg" width="90" height="90" viewBox="0 0 90 90">
  <g id="circle" transform="translate(-448 -669)">
    <g id="Groupe_36" data-name="Groupe 36">
      <g id="Ellipse_12" data-name="Ellipse 12" transform="translate(480 693)" fill="rgba(255,255,255,0)" stroke="#19a998" stroke-width="3">
        <circle cx="25" cy="25" r="25" stroke="none"/>
        <circle cx="25" cy="25" r="23.5" fill="none"/>
      </g>
      <g id="Ellipse_11" data-name="Ellipse 11" transform="translate(464 673)" fill="rgba(255,255,255,0)" stroke="#008297" stroke-width="3">
        <circle cx="20.5" cy="20.5" r="20.5" stroke="none"/>
        <circle cx="20.5" cy="20.5" r="19" fill="none"/>
      </g>
      <g id="Tracé_146" data-name="Tracé 146" transform="translate(455 702)" fill="rgba(255,255,255,0)">
        <path d="M 25 48.5 C 21.82686042785645 48.5 18.74942970275879 47.87886810302734 15.85319995880127 46.65386962890625 C 13.05500984191895 45.47034072875977 10.54166984558105 43.77568817138672 8.382989883422852 41.61700820922852 C 6.224309921264648 39.45832824707031 4.529660224914551 36.94498825073242 3.346129894256592 34.14680099487305 C 2.121129989624023 31.25057029724121 1.5 28.17313957214355 1.5 25 C 1.5 21.82686042785645 2.121129989624023 18.74942970275879 3.346129894256592 15.85319995880127 C 4.529660224914551 13.05500984191895 6.224309921264648 10.54166984558105 8.382989883422852 8.382989883422852 C 10.54166984558105 6.224309921264648 13.05500984191895 4.529660224914551 15.85319995880127 3.346129894256592 C 18.74942970275879 2.121129989624023 21.82686042785645 1.5 25 1.5 C 28.17313957214355 1.5 31.25057029724121 2.121129989624023 34.14680099487305 3.346129894256592 C 36.94498825073242 4.529660224914551 39.45832824707031 6.224309921264648 41.61700820922852 8.382989883422852 C 43.77568817138672 10.54166984558105 45.47034072875977 13.05500984191895 46.65386962890625 15.85319995880127 C 47.87886810302734 18.74942970275879 48.5 21.82686042785645 48.5 25 C 48.5 28.17313957214355 47.87886810302734 31.25057029724121 46.65386962890625 34.14680099487305 C 45.47034072875977 36.94498825073242 43.77568817138672 39.45832824707031 41.61700820922852 41.61700820922852 C 39.45832824707031 43.77568817138672 36.94498825073242 45.47034072875977 34.14680099487305 46.65386962890625 C 31.25057029724121 47.87886810302734 28.17313957214355 48.5 25 48.5 Z" stroke="none"/>
        <path d="M 25 3 C 22.02869987487793 3 19.14785957336426 3.581260681152344 16.43753051757812 4.727638244628906 C 13.81813812255859 5.835540771484375 11.46506118774414 7.4222412109375 9.443649291992188 9.443649291992188 C 7.4222412109375 11.46506118774414 5.835540771484375 13.81813812255859 4.727638244628906 16.43753051757812 C 3.581260681152344 19.14785957336426 3 22.02869987487793 3 25 C 3 27.97130012512207 3.581260681152344 30.85214042663574 4.727638244628906 33.56246948242188 C 5.835540771484375 36.18186187744141 7.4222412109375 38.53493881225586 9.443649291992188 40.55635070800781 C 11.46506118774414 42.5777587890625 13.81813812255859 44.16445922851562 16.43753051757812 45.27236175537109 C 19.14785957336426 46.41873931884766 22.02869987487793 47 25 47 C 27.97130012512207 47 30.85214042663574 46.41873931884766 33.56246948242188 45.27236175537109 C 36.18186187744141 44.16445922851562 38.53493881225586 42.5777587890625 40.55635070800781 40.55635070800781 C 42.5777587890625 38.53493881225586 44.16445922851562 36.18186187744141 45.27236175537109 33.56246948242188 C 46.41873931884766 30.85214042663574 47 27.97130012512207 47 25 C 47 22.02869987487793 46.41873931884766 19.14785957336426 45.27236175537109 16.43753051757812 C 44.16445922851562 13.81813812255859 42.5777587890625 11.46506118774414 40.55635070800781 9.443649291992188 C 38.53493881225586 7.4222412109375 36.18186187744141 5.835540771484375 33.56246948242188 4.727638244628906 C 30.85214042663574 3.581260681152344 27.97130012512207 3 25 3 M 25 0 C 38.80712127685547 0 50 11.19287872314453 50 25 C 50 38.80712127685547 38.80712127685547 50 25 50 C 11.19287872314453 50 0 38.80712127685547 0 25 C 0 11.19287872314453 11.19287872314453 0 25 0 Z" stroke="none" fill="#129cad"/>
      </g>
    </g>
    <rect id="Rectangle_55" data-name="Rectangle 55" width="90" height="90" transform="translate(448 669)" fill="#fff" opacity="0"/>
  </g>
</svg>
