<svg xmlns="http://www.w3.org/2000/svg" width="489.805" height="467.387" viewBox="0 0 489.805 467.387">
  <g id="Circular" transform="translate(-1607.375 -984.262)">
    <path id="Tracé_108" data-name="Tracé 108" d="M2023.412,1031.9c-5.492-3.057-10.693-6.533-16.1-9.684a236.2,236.2,0,0,0-86.017-29.949,236.592,236.592,0,0,0-131.431,19.239,230.871,230.871,0,0,0-101.619,92.967c-.977,1.685-1.777,2.1-3.5.951-2.512-1.679-5.159-3.169-7.815-4.617-1.569-.854-1.752-1.691-.786-3.219a252.055,252.055,0,0,1,21.768-29.574,239.592,239.592,0,0,1,64.7-53.388,234.879,234.879,0,0,1,68.639-25.452,244.659,244.659,0,0,1,43.746-4.854,238.084,238.084,0,0,1,105.9,22.089,231.265,231.265,0,0,1,41.38,24.563C2022.666,1031.262,2023.033,1031.589,2023.412,1031.9Z" transform="translate(-24.173)" fill="#129cad"/>
    <path id="Tracé_109" data-name="Tracé 109" d="M1607.517,1331.188c1.027,4.833.8,9.741,1.19,14.6a235.714,235.714,0,0,0,9.244,49.4,235.489,235.489,0,0,0,111.476,138.15,226.271,226.271,0,0,0,78.808,25.936,230.611,230.611,0,0,0,33.828,2.157,214.925,214.925,0,0,0,22.21-1.252c1.794-.2,2.473.413,2.609,2.124.25,3.158.6,6.308.924,9.46.134,1.3-.285,2.061-1.715,2.141-3.594.2-7.182.576-10.778.667a246.191,246.191,0,0,1-85.519-12.569,233.48,233.48,0,0,1-74.551-41.55,240.611,240.611,0,0,1-55.644-65.586,236.985,236.985,0,0,1-30.151-88.422,218.019,218.019,0,0,1-2.035-33.181C1607.429,1332.576,1607.482,1331.882,1607.517,1331.188Z" transform="translate(0 -123.016)" fill="#129cad"/>
    <path id="Tracé_110" data-name="Tracé 110" d="M2184.641,1463.272c4.575-3.237,9.238-6.357,13.709-9.73q56.128-42.334,80.344-108.355a230.555,230.555,0,0,0,13.327-60.609,225.056,225.056,0,0,0-19.267-112.29,233.3,233.3,0,0,0-27.577-46.337c-1.236-1.618-1.079-2.452.544-3.548,2.385-1.61,4.634-3.426,6.918-5.183,2.094-1.611,2.294-1.63,3.854.6a269.522,269.522,0,0,1,15.177,24.149,242.8,242.8,0,0,1,25.971,71.413,226.924,226.924,0,0,1,4.015,53.323,242.361,242.361,0,0,1-28.792,104.991,239.439,239.439,0,0,1-85.773,90.606c-.73.445-1.492.836-2.239,1.252Z" transform="translate(-204.693 -46.738)" fill="#19a998"/>
    <path id="Tracé_111" data-name="Tracé 111" d="M2109.194,1119.1c-2.408-3.473-4.745-7-7.234-10.41-28.137-38.576-64.778-65.319-110.559-79.289a212.973,212.973,0,0,0-51.38-8.939c-39.449-2.041-76.576,6.305-111.5,24.624a193.465,193.465,0,0,0-28.864,18.579c-1.568,1.219-2.464,1.17-3.592-.5-1.69-2.505-3.535-4.917-5.452-7.255-1.131-1.379-1.069-2.149.452-3.224a225.411,225.411,0,0,1,52.258-27.507,219.085,219.085,0,0,1,56.745-12.852,222.075,222.075,0,0,1,112.327,18.844,212.238,212.238,0,0,1,69.684,50.536,218.109,218.109,0,0,1,26.076,34.663c.482.8.929,1.614,1.392,2.422Z" transform="translate(-64.697 -9.622)" fill="#008297"/>
    <path id="Tracé_112" data-name="Tracé 112" d="M2045.5,1525.054c3.833-.833,7.676-1.622,11.5-2.507a216.639,216.639,0,0,0,67.9-28.308,201.91,201.91,0,0,0,40.669-34.033c27.585-30.085,45.5-65.133,53.382-105.237a208.266,208.266,0,0,0,3.842-46.635,205.327,205.327,0,0,0-7.188-48.619c-.532-1.925-.159-2.752,1.8-3.176,2.954-.641,5.887-1.415,8.782-2.291,1.784-.539,2.475.1,2.858,1.771a231.488,231.488,0,0,1,4.753,29.2,217.582,217.582,0,0,1,.9,26.119,223.908,223.908,0,0,1-53.926,140.684,212.038,212.038,0,0,1-58.025,47.59,220.521,220.521,0,0,1-73.6,25.345c-1.188.189-2.386.314-3.58.468C2045.546,1525.3,2045.524,1525.177,2045.5,1525.054Z" transform="translate(-155.355 -95.667)" fill="#129cad"/>
    <path id="Tracé_113" data-name="Tracé 113" d="M1652.91,1206.266c-1.32,3.867-2.692,7.717-3.952,11.6a214.638,214.638,0,0,0-10.239,53.776c-2.686,45.663,8.695,87.664,32.83,126.339a205.7,205.7,0,0,0,33.834,41.13,211.081,211.081,0,0,0,75.088,45.874c3.668,1.292,7.378,2.478,11.106,3.587,1.4.416,1.925.972,1.451,2.447-1.034,3.225-1.985,6.476-2.931,9.728-.379,1.306-.989,1.651-2.375,1.192a223.979,223.979,0,0,1-57.6-28.842,223.888,223.888,0,0,1-78.817-98.087,218.319,218.319,0,0,1-15.123-57.3,210.746,210.746,0,0,1-.632-44.429,223.462,223.462,0,0,1,16.135-65.432c.241-.587.543-1.149.816-1.723Z" transform="translate(-9.68 -78.671)" fill="#129cad"/>
    <path id="Tracé_114" data-name="Tracé 114" d="M1783.129,1527.061c3.524,3.026,7,6.116,10.581,9.066a172.369,172.369,0,0,0,119.336,38.685q55.5-3.283,98.346-38.958a170.277,170.277,0,0,0,22.9-23.187c.975-1.194,1.736-1.5,2.976-.373,1.595,1.454,3.288,2.809,5,4.124,1.117.858,1.167,1.564.219,2.634a188.263,188.263,0,0,1-32.3,29.243,172.2,172.2,0,0,1-73.82,30.02,179.782,179.782,0,0,1-44.812,1.173,174.06,174.06,0,0,1-65.584-19.8,169.662,169.662,0,0,1-36.066-25.539C1787.513,1531.927,1784.988,1529.83,1783.129,1527.061Z" transform="translate(-62.32 -186.985)" fill="#19a998"/>
    <path id="Tracé_115" data-name="Tracé 115" d="M2169.506,1283.432c.775-5.018,1.579-9.62,2.181-14.248a171.779,171.779,0,0,0,.453-39.448,167.093,167.093,0,0,0-18.874-62.5c-21.609-40.543-54.174-68.193-97.893-82.562a163.477,163.477,0,0,0-28.609-6.57c-2.824-.393-2.972-.577-2.567-3.439.223-1.569.609-3.128.677-4.7.09-2.072,1-2.511,2.931-2.169a189.792,189.792,0,0,1,22.691,5.417,173.8,173.8,0,0,1,104.762,87.25,176.93,176.93,0,0,1,19.158,65.989,174.5,174.5,0,0,1-3.8,54.3c-.159.7-.363,1.393-.568,2.083C2170.013,1282.944,2169.872,1283.03,2169.506,1283.432Z" transform="translate(-147.742 -29.581)" fill="#129cad"/>
    <path id="Tracé_116" data-name="Tracé 116" d="M1872.81,1078.5c-5.087,1.506-10.233,2.536-15.3,3.92A172.844,172.844,0,0,0,1739.2,1193.839a163.281,163.281,0,0,0-8.189,43.6,173.325,173.325,0,0,0,5.254,52.236c.429,1.7.1,2.547-1.671,2.891a43.955,43.955,0,0,0-5.443,1.381c-1.883.624-2.565-.109-2.948-1.88q-2.212-10.254-3.421-20.667a175.822,175.822,0,0,1-.892-24.813,169.945,169.945,0,0,1,15.2-66.1,177.188,177.188,0,0,1,99.582-92.968,169.252,169.252,0,0,1,34.679-8.9C1871.83,1078.554,1872.322,1078.537,1872.81,1078.5Z" transform="translate(-40.574 -33.414)" fill="#008297"/>
    <path id="Tracé_117" data-name="Tracé 117" d="M1944.26,1101.131c-7.389-.982-14.621-2.223-21.961-2.727a170.625,170.625,0,0,0-28.494.241A146.886,146.886,0,0,0,1850,1109.839c-33.016,14.193-58.576,36.806-76.32,68.114a150.988,150.988,0,0,0-18.423,54.773c-.231,1.718-.761,2.631-2.758,2.167a44.822,44.822,0,0,0-5.563-.745c-1.728-.177-2.291-.915-1.967-2.725a167.047,167.047,0,0,1,10.809-36.389,160.947,160.947,0,0,1,41.031-57.4c24.423-21.848,52.8-35.532,85.37-40.162a158.154,158.154,0,0,1,60.046,3.08C1942.909,1100.714,1943.581,1100.936,1944.26,1101.131Z" transform="translate(-48.757 -39.589)" fill="#19a998"/>
    <path id="Tracé_118" data-name="Tracé 118" d="M1746.68,1442.934c1.677,3.313,3.205,6.47,4.853,9.563,16.218,30.436,39.787,53.245,70.968,68.051a157.341,157.341,0,0,0,140.624-3.081c2.984-1.574,2.991-1.549,4.6,1.453.714,1.334,1.371,2.707,2.2,3.97,1.088,1.667.516,2.469-1.133,3.274a168.984,168.984,0,0,1-40.19,13.722,157.708,157.708,0,0,1-30.89,3.307,164.3,164.3,0,0,1-69.442-14.662,157.283,157.283,0,0,1-51.827-37.5,159.152,159.152,0,0,1-29.4-46.047C1746.8,1444.435,1746.293,1443.906,1746.68,1442.934Z" transform="translate(-49.346 -162.64)" fill="#19a998"/>
    <path id="Tracé_119" data-name="Tracé 119" d="M2160.669,1355.127c2.568-4.543,5.414-8.936,7.94-13.526a156.707,156.707,0,0,0-31.595-191.191,150.554,150.554,0,0,0-26.244-19.311c-2.427-1.413-2.408-1.438-.945-3.941.91-1.555,1.86-3.09,2.7-4.682.7-1.325,1.44-1.482,2.734-.672a160.026,160.026,0,0,1,18.016,13.059,164.121,164.121,0,0,1,58.193,109.888c3.131,31.5-2.761,61.232-17.329,89.287A129.116,129.116,0,0,1,2160.669,1355.127Z" transform="translate(-177.807 -48.595)" fill="#008297"/>
  </g>
</svg>
