<svg xmlns="http://www.w3.org/2000/svg" width="632" height="632" viewBox="0 0 632 632">
  <g id="contact" transform="translate(-464 -285)">
    <rect id="Rectangle_173" data-name="Rectangle 173" width="632" height="632" transform="translate(464 285)" fill="rgba(255,255,255,0)"/>
    <g id="contact-2" data-name="contact" transform="translate(547 386.999)">
      <path id="Tracé_16" data-name="Tracé 16" d="M516.712,393.691c-.083,0-.135,0-.154,0h-9.951v-1.467H516.6c.231.008,4.949.141,9.3-5.133,6.478-7.861,11.8-27.32.353-75.385-15.388-64.63-2.554-121.727,3.678-143.275a7.155,7.155,0,0,0-6.884-9.135H374.422a7.187,7.187,0,0,0-5.8,2.95c-2.64,3.632-6.263,10.608-8.53,23.223l-1.444-.259c2.316-12.889,6.057-20.071,8.788-23.827a8.658,8.658,0,0,1,6.982-3.555H523.039a8.622,8.622,0,0,1,8.293,11.01c-6.2,21.437-18.968,78.238-3.66,142.528,11.6,48.741,6.026,68.622-.7,76.718C522.54,393.421,517.653,393.691,516.712,393.691Z" transform="translate(-303.009 -157.825)" fill="#e6e6e6"/>
      <path id="Tracé_17" data-name="Tracé 17" d="M480.212,430.191c-.083,0-.135,0-.154,0h-9.951v-1.467H480.1c.232.007,4.949.142,9.3-5.133,6.478-7.861,11.8-27.32.353-75.385-15.388-64.63-2.554-121.727,3.678-143.275a7.155,7.155,0,0,0-6.884-9.135H337.922a7.187,7.187,0,0,0-5.8,2.95c-2.64,3.632-6.263,10.608-8.53,23.223l-1.444-.259c2.316-12.889,6.057-20.071,8.788-23.827a8.658,8.658,0,0,1,6.982-3.555H486.539a8.622,8.622,0,0,1,8.293,11.01c-6.2,21.437-18.968,78.238-3.66,142.529,11.6,48.741,6.026,68.622-.7,76.718C486.04,429.921,481.153,430.191,480.212,430.191Z" transform="translate(-293.287 -167.547)" fill="#ccc"/>
      <path id="Tracé_18" data-name="Tracé 18" d="M442.954,466.691c-.083,0-.135,0-.154,0H296.475a8.62,8.62,0,0,1-8.017-11.813c5.309-13.265,12.458-45.089.683-109.194-13.9-75.7-1.456-103.054,4.541-111.3a8.658,8.658,0,0,1,6.982-3.555H449.28a8.622,8.622,0,0,1,8.293,11.01c-6.2,21.437-18.968,78.238-3.661,142.528,11.6,48.741,6.026,68.622-.7,76.718C448.781,466.42,443.895,466.691,442.954,466.691Zm-142.29-234.4a7.187,7.187,0,0,0-5.8,2.95c-5.886,8.1-18.085,35.036-4.284,110.174,11.248,61.239,5.793,93.622-.764,110a7.034,7.034,0,0,0,.717,6.65,7.162,7.162,0,0,0,5.938,3.151H442.837c.231.011,4.949.142,9.3-5.133,6.478-7.861,11.8-27.32.353-75.385-15.388-64.63-2.554-121.727,3.678-143.275a7.155,7.155,0,0,0-6.884-9.135Z" transform="translate(-282.806 -177.27)" fill="#3f3d56"/>
      <path id="Tracé_19" data-name="Tracé 19" d="M430.784,316.563H314.136a5.869,5.869,0,1,1,0-11.738H430.784a5.869,5.869,0,0,1,0,11.738Z" transform="translate(-289.588 -196.98)" fill="#08867e"/>
      <path id="Tracé_20" data-name="Tracé 20" d="M430.784,350.563H314.136a5.869,5.869,0,1,1,0-11.738H430.784a5.869,5.869,0,0,1,0,11.738Z" transform="translate(-289.588 -206.037)" fill="#ccc"/>
      <path id="Tracé_21" data-name="Tracé 21" d="M430.784,384.563H314.136a5.869,5.869,0,1,1,0-11.738H430.784a5.869,5.869,0,0,1,0,11.738Z" transform="translate(-289.588 -215.093)" fill="#ccc"/>
      <path id="Tracé_22" data-name="Tracé 22" d="M442.784,418.563H326.136a5.869,5.869,0,1,1,0-11.738H442.784a5.869,5.869,0,0,1,0,11.738Z" transform="translate(-292.785 -224.15)" fill="#ccc"/>
      <path id="Tracé_23" data-name="Tracé 23" d="M442.784,452.563H326.136a5.869,5.869,0,1,1,0-11.738H442.784a5.869,5.869,0,0,1,0,11.738Z" transform="translate(-292.785 -233.206)" fill="#ccc"/>
      <path id="Tracé_24" data-name="Tracé 24" d="M369.159,282.563H314.136a5.869,5.869,0,1,1,0-11.738h55.023a5.869,5.869,0,1,1,0,11.738Z" transform="translate(-289.588 -187.924)" fill="#08867e"/>
      <path id="Tracé_25" data-name="Tracé 25" d="M380.8,504.916c1.184-5.014,6.748-6.658,11.3-6.474a48.219,48.219,0,0,1,8.518,1.348c2.923.654,5.817,1.428,8.7,2.249,5.281,1.506,10.508,3.327,15.876,4.5,4.469.98,9.325,1.555,13.782.2a13.072,13.072,0,0,0,9.084-8.91c1.1-4.161-.41-8.71-4.441-10.612-3.677-1.734-8.321-.852-10.144,3.069-2.055,4.421,0,9.243,3.252,12.443a36.439,36.439,0,0,0,6.044,4.59A22.5,22.5,0,0,0,450,510.568c4.244.907,9.3-.429,11.488-4.484a7.578,7.578,0,0,0,.86-2.962c.13-1.41-2.072-1.4-2.2,0-.371,4.038-5.1,5.928-8.635,5.485a17.552,17.552,0,0,1-6.695-2.6,39.232,39.232,0,0,1-5.545-3.912c-3-2.6-5.81-6.866-3.8-10.916,1.64-3.3,5.915-3.265,8.516-1.138,3.149,2.576,2.588,7.25.511,10.309-2.3,3.387-6.468,4.806-10.4,4.959a40.667,40.667,0,0,1-12.587-1.973c-5.071-1.44-10.092-3.052-15.188-4.408-2.893-.77-5.808-1.464-8.753-2a28.886,28.886,0,0,0-8.488-.588c-4.592.53-9.28,3.2-10.411,7.992C378.353,505.708,380.474,506.3,380.8,504.916Z" transform="translate(-308.334 -245.34)" fill="#3f3d56"/>
      <path id="Tracé_26" data-name="Tracé 26" d="M688.077,656.1a336.02,336.02,0,0,0,3.168,43.178c.069.5.145,1,.215,1.507l135.284-.756c.4-.5.788-1,1.167-1.515,1.263-1.691,2.447-3.431,3.533-5.231,5.223-8.669,7.614-18.82,5.218-25.823l-.043-.109a12.291,12.291,0,0,0-2.4-4.167c-5.463-6.15-16.51-5.125-26.534-.161,8.991-9.841,16.15-22.26,16.695-33.346.533-10.812-5.12-18.536-11.253-25.1-.2-.217-.4-.428-.6-.639-.1-.109-.2-.211-.3-.32-4.784-5-10.362-9.934-18.436-9.337-8.855.655-18.672,8.072-25.555,16.714s-11.457,18.447-16.094,28.022-9.665,19.383-17.115,27.562c10.09-12.762,18.225-27.283,21.23-41.406s.36-27.686-8.632-34.337a21.033,21.033,0,0,0-9.213-3.717c-.388-.064-.782-.117-1.182-.163-8.324-.947-18.264,1.932-26.72,8.814-9.314,7.577-15.77,18.811-18.983,29.475S687.973,646.173,688.077,656.1Z" transform="translate(-390.752 -272.083)" fill="#129cad" opacity="0.22"/>
      <path id="Tracé_27" data-name="Tracé 27" d="M808.729,729.573l2.587-.014q1.232-.77,2.476-1.523c.513-.324,1.033-.636,1.552-.954q12.871-7.861,25.9-15.081t26.171-13.785a1.084,1.084,0,0,0,.623-1.24.313.313,0,0,0-.043-.091c-.122-.23-.4-.325-.794-.129-1.075.539-2.157,1.078-3.232,1.63q-13.187,6.672-26.261,14.01T811.73,727.714c-.181.11-.362.226-.543.336C810.366,728.558,809.551,729.066,808.729,729.573Z" transform="translate(-422.894 -301.349)" fill="#fff"/>
      <path id="Tracé_28" data-name="Tracé 28" d="M763.264,706.721l1.6-.009c.361-.5.715-1.01,1.076-1.515q12.715-17.83,25.425-35.661,20.814-29.191,41.615-58.382a1.031,1.031,0,0,0,.18-.352c.119-.431-.2-.684-.6-.639a1.215,1.215,0,0,0-.845.538q-11.669,16.37-23.333,32.729l-41.4,58.084c-.878,1.229-1.755,2.464-2.633,3.693C763.98,705.711,763.619,706.216,763.264,706.721Z" transform="translate(-410.783 -278.311)" fill="#fff"/>
      <path id="Tracé_29" data-name="Tracé 29" d="M714.669,691.167c.082,2.7.26,5.349.493,7.977q.068.754.136,1.508l1.678-.009c-.051-.5-.1-1.005-.148-1.508-.355-3.8-.606-7.637-.64-11.582a161.565,161.565,0,0,1,3.181-32.568,202.767,202.767,0,0,1,9.851-33.835,232.36,232.36,0,0,1,16.118-33.476.894.894,0,0,0,.148-.595c-.069-.478-.706-.62-1.182-.163a1.387,1.387,0,0,0-.241.3q-1.161,2-2.28,4.006a232.214,232.214,0,0,0-15.427,33.593,201.806,201.806,0,0,0-9.184,33.886A159.4,159.4,0,0,0,714.669,691.167Z" transform="translate(-397.826 -272.046)" fill="#fff"/>
      <path id="Tracé_30" data-name="Tracé 30" d="M491.571,511.133a1.834,1.834,0,0,1,1-3.235,30.291,30.291,0,0,1,11.88,1.218l39.114,12.08a4.035,4.035,0,1,1-2.381,7.711l-39.114-12.08A30.294,30.294,0,0,1,491.571,511.133Z" transform="translate(-338.238 -251.034)" fill="#3f3d56"/>
      <path id="Tracé_31" data-name="Tracé 31" d="M706.627,563.352a7.881,7.881,0,0,1-3.571-11.545l-6.7-35.062,17.087-1.332,1.031,34.3a7.924,7.924,0,0,1-7.843,13.644Z" transform="translate(-392.96 -253.074)" fill="#ffb8b8"/>
      <path id="Tracé_32" data-name="Tracé 32" d="M688.49,521.023l-17.4-81.053a12.838,12.838,0,1,1,25.1-5.39l17.4,81.053a3.306,3.306,0,0,1-2.535,3.921l-18.65,4a3.3,3.3,0,0,1-3.921-2.535Z" transform="translate(-386.154 -228.84)" fill="#08867e"/>
      <path id="Tracé_33" data-name="Tracé 33" d="M368.351,559.468h-8.994l-4.279-34.692h13.275Z" transform="translate(-94.58 -139.782)" fill="#ffb8b8"/>
      <path id="Tracé_34" data-name="Tracé 34" d="M348.189,568.561h17.345v10.922H337.267a10.922,10.922,0,0,1,10.922-10.922Z" transform="translate(-89.836 -151.444)" fill="#2f2e41"/>
      <path id="Tracé_35" data-name="Tracé 35" d="M409.351,558.468h-8.994l-4.279-34.692h13.275Z" transform="translate(-105.501 -139.515)" fill="#ffb8b8"/>
      <path id="Tracé_36" data-name="Tracé 36" d="M389.189,567.561h17.345v10.922H378.267A10.922,10.922,0,0,1,389.189,567.561Z" transform="translate(-100.757 -151.178)" fill="#2f2e41"/>
      <path id="Tracé_37" data-name="Tracé 37" d="M637.056,676.471a3.279,3.279,0,0,1-1.186-2.247L625.414,559.206a3.3,3.3,0,0,1,3.164-3.6l52.44-1.967a3.3,3.3,0,0,1,3.423,3.42l-4.192,114.577a3.308,3.308,0,0,1-3,3.167l-10.574.961a3.3,3.3,0,0,1-3.593-3.068l-4.853-72.789a1.053,1.053,0,0,0-1.1-1.027h0a1.054,1.054,0,0,0-1.095,1.035l-4.343,73.28a3.286,3.286,0,0,1-2.967,3.089l-9.237.924a3.279,3.279,0,0,1-2.431-.739Z" transform="translate(-374.061 -263.256)" fill="#008297"/>
      <circle id="Ellipse_1" data-name="Ellipse 1" cx="18.019" cy="18.019" r="18.019" transform="translate(265.147 142.62)" fill="#ffb8b8"/>
      <path id="Tracé_38" data-name="Tracé 38" d="M620.89,521.464a3.274,3.274,0,0,1-.772-2.7c3.327-20.22,1.452-49.942-.707-71.315a32.427,32.427,0,0,1,13.382-29.567l9.41-8.066a3.353,3.353,0,0,1,2.243-.794l23.378.668a3.289,3.289,0,0,1,2.24.966l3.612,8,.037.027a32.332,32.332,0,0,1,13.143,27.651l-3.441,71.116a3.319,3.319,0,0,1-3.189,3.14l-56.745,1.994-.11,0A3.294,3.294,0,0,1,620.89,521.464Z" transform="translate(-372.423 -224.735)" fill="#08867e"/>
      <path id="Tracé_39" data-name="Tracé 39" d="M528.708,511.507a7.881,7.881,0,0,1,9.072-7.984l29.246-20.467,8.209,15.045-30.869,14.978a7.924,7.924,0,0,1-15.659-1.572Z" transform="translate(-348.305 -244.455)" fill="#ffb8b8"/>
      <path id="Tracé_40" data-name="Tracé 40" d="M557.144,500.239a3.282,3.282,0,0,1-2.161-1.31L543.7,483.552a3.306,3.306,0,0,1,.708-4.615l66.83-49.053a12.839,12.839,0,0,1,15.194,20.7L559.6,499.637a3.278,3.278,0,0,1-1.946.641,3.368,3.368,0,0,1-.508-.038Z" transform="translate(-352.128 -229.629)" fill="#08867e"/>
      <path id="Tracé_41" data-name="Tracé 41" d="M661.969,383.083c2.39-2.93,2.128-7.393.21-10.651s-5.174-5.5-8.523-7.255-6.909-3.131-10.061-5.218-3.015-10.922-3.855-14.608l2,.667c-.77-.984-1.016-3.893-1.786-4.878,2.262.224,4,2.371,6.264,2.595l-1.305-3.5c7.758-.478,12.581,4.913,20.339,4.434,3.844-.237,8.018-.387,11.178,1.814,2.746,1.913,4.136,5.224,5.048,8.443,1.958,6.913,2.263,14.657-1.12,21s-11.178,10.611-17.989,8.322Z" transform="translate(-377.881 -206.403)" fill="#2f2e41"/>
      <path id="Tracé_42" data-name="Tracé 42" d="M534.928,741.292H814.443a.734.734,0,0,0,0-1.467H534.928a.734.734,0,0,0,0,1.467Z" transform="translate(-349.767 -312.849)" fill="#3f3d56"/>
    </g>
  </g>
</svg>
