<svg xmlns="http://www.w3.org/2000/svg" width="100" height="100" viewBox="0 0 100 100">
  <g id="faster_time" transform="translate(-366 -925)">
    <rect id="faster_time-2" data-name="faster_time" width="100" height="100" transform="translate(366 925)" fill="rgba(255,255,255,0)"/>
    <g id="Groupe_37" data-name="Groupe 37" transform="translate(-1174.896 686.663)">
      <path id="Tracé_162" data-name="Tracé 162" d="M1629.606,259.433c-.273,0-.547-.008-.82-.008H1552.9v-.08h75.889c.274,0,.547-.005.82-.008Z" fill="#008297"/>
      <path id="Tracé_163" data-name="Tracé 163" d="M1697.705,319.068a9.788,9.788,0,0,0,1.432-1.922,22.521,22.521,0,0,0,3.578-10.237,23.005,23.005,0,0,0-3.814-15.458,22.711,22.711,0,0,0-12.019-9.222,23.145,23.145,0,0,0-18.943,1.705,22.376,22.376,0,0,0-7.034,6c-.28.36-.478.364-.81.1q-1.116-.882-2.272-1.713c-.319-.229-.3-.414-.077-.7a27.394,27.394,0,0,1,48.707,12.876,26.951,26.951,0,0,1-1.808,14.557,26.56,26.56,0,0,1-4.567,7.34c-.273.313-.273.469.07.7,1.216.814,2.419,1.646,3.622,2.479.121.084.354.129.3.322-.039.136-.247.12-.386.145q-6.987,1.208-13.975,2.413c-.713.123-1.425.249-2.139.369-.155.026-.357.111-.456-.028s.064-.295.152-.422q1.785-2.606,3.577-5.209,2.784-4.057,5.565-8.115c.036-.053.067-.11.107-.16.088-.108.138-.3.305-.271s.15.223.174.358c.159.9.313,1.805.47,2.708Z" transform="translate(-87.825 -14.886)" fill="#008297"/>
      <path id="Tracé_164" data-name="Tracé 164" d="M1775.37,332.322c0,2.347.008,4.694-.009,7.04,0,.445.073.775.522.966a1.337,1.337,0,0,1,.528.41,1.516,1.516,0,0,0,1.39.563c3.923-.02,7.847-.012,11.77-.008a2.11,2.11,0,0,1,2.126,1.558,2.086,2.086,0,0,1-2.029,2.6c-1.061.018-2.122.005-3.184.005-2.991,0-5.982.005-8.972-.006a1.164,1.164,0,0,0-.929.386,3.448,3.448,0,0,1-3.847.9,3.343,3.343,0,0,1-2.347-3.022,3.423,3.423,0,0,1,1.766-3.446.819.819,0,0,0,.423-.826q-.009-7.089-.005-14.177a2.3,2.3,0,0,1,.172-1.036,1.353,1.353,0,0,1,2.436-.034,2.2,2.2,0,0,1,.19,1.032Q1775.368,328.778,1775.37,332.322Z" transform="translate(-182.444 -53.79)" fill="#19a998"/>
      <path id="Tracé_165" data-name="Tracé 165" d="M1735.8,584.627c-.172,1.094-.34,2.188-.516,3.281-.035.216-.206.218-.375.19a26.761,26.761,0,0,1-5.382-1.465c-.25-.1-.3-.26-.2-.5q.6-1.446,1.189-2.9c.109-.271.28-.31.535-.213a25.58,25.58,0,0,0,4.359,1.2C1735.628,584.272,1735.826,584.339,1735.8,584.627Z" transform="translate(-147.973 -271.513)" fill="#008297"/>
      <path id="Tracé_166" data-name="Tracé 166" d="M1628.413,470.2c.387-.034.414.219.455.435a26.5,26.5,0,0,0,.783,3.127c.126.4.267.791.416,1.18a.356.356,0,0,1-.228.53q-1.451.586-2.9,1.185a.326.326,0,0,1-.492-.212,27.047,27.047,0,0,1-1.458-5.331c-.031-.183-.044-.375.2-.414C1626.285,470.527,1627.38,470.36,1628.413,470.2Z" transform="translate(-60.469 -176.897)" fill="#008297"/>
      <path id="Tracé_167" data-name="Tracé 167" d="M1631.285,370.772c.084-.243.163-.488.252-.729a29.769,29.769,0,0,1,1.465-3.252c.141-.273.289-.343.567-.186q1.344.758,2.7,1.489c.248.134.318.278.177.537a20.116,20.116,0,0,0-1.414,3.271c-.078.238-.209.343-.47.257-1.007-.334-2.017-.659-3.026-.989C1631.351,371.109,1631.231,371,1631.285,370.772Z" transform="translate(-65.752 -89.922)" fill="#008297"/>
      <path id="Tracé_168" data-name="Tracé 168" d="M1649.645,527.547a.4.4,0,0,1-.343-.2,31.952,31.952,0,0,1-2.454-3.4c-.167-.277-.168-.44.138-.614q1.321-.752,2.614-1.551c.292-.18.451-.119.617.157a18.94,18.94,0,0,0,2.028,2.813c.183.207.247.388-.013.607-.8.674-1.581,1.366-2.372,2.049A1.669,1.669,0,0,1,1649.645,527.547Z" transform="translate(-78.725 -220.086)" fill="#008297"/>
      <path id="Tracé_169" data-name="Tracé 169" d="M1790.95,593.388c0-.5.007-1,0-1.493-.006-.319.119-.476.452-.471a21.02,21.02,0,0,0,3.4-.279c.326-.048.513.037.571.393.161.982.343,1.96.519,2.939a.374.374,0,0,1-.351.506,24.175,24.175,0,0,1-4.218.341c-.314,0-.419-.137-.406-.445.021-.5.006-.995.006-1.492Z" transform="translate(-199.682 -278.354)" fill="#008297"/>
      <path id="Tracé_170" data-name="Tracé 170" d="M1682.809,556.684a1.652,1.652,0,0,1,.208.134,20.233,20.233,0,0,0,2.613,1.962.319.319,0,0,1,.12.517q-.87,1.357-1.731,2.719a.274.274,0,0,1-.441.092,30.737,30.737,0,0,1-3.157-2.359.323.323,0,0,1-.047-.533q1.079-1.2,2.156-2.4A.321.321,0,0,1,1682.809,556.684Z" transform="translate(-106.845 -249.453)" fill="#008297"/>
      <path id="Tracé_171" data-name="Tracé 171" d="M1624.683,420.6c-.514,0-1.029,0-1.543,0-.326,0-.451-.139-.446-.47a26.153,26.153,0,0,1,.388-3.782c.047-.294.2-.371.468-.319q1.539.295,3.08.577c.265.048.336.185.292.443a23.377,23.377,0,0,0-.327,3.208c-.009.289-.131.391-.419.381-.5-.018-1-.005-1.494-.005Z" transform="translate(-58.556 -131.44)" fill="#008297"/>
    </g>
  </g>
</svg>
