<svg xmlns="http://www.w3.org/2000/svg" width="308.052" height="147" viewBox="0 0 308.052 147">
  <g id="fiability" transform="translate(-1167 -886)">
    <rect id="Rectangle_58" data-name="Rectangle 58" width="308.051" height="147" transform="translate(1167 886)" fill="rgba(255,255,255,0)"/>
    <g id="Groupe_54" data-name="Groupe 54" transform="translate(1399.203 941.698) rotate(53)">
      <g id="Polygone_17" data-name="Polygone 17" transform="translate(19.542 11.425)" fill="rgba(255,255,255,0)">
        <path d="M 18.90113639831543 21.3492431640625 L 7.455674648284912 21.3492431640625 L 1.731606125831604 11.42462348937988 L 7.455674648284912 1.500003457069397 L 18.90113639831543 1.500003457069397 L 24.62521362304688 11.42462348937988 L 18.90113639831543 21.3492431640625 Z" stroke="none"/>
        <path d="M 8.322153091430664 3.000003814697266 L 3.46320915222168 11.42462348937988 L 8.322153091430664 19.8492431640625 L 18.0346565246582 19.8492431640625 L 22.89359283447266 11.42462348937988 L 18.0346565246582 3.000003814697266 L 8.322153091430664 3.000003814697266 M 6.589204788208008 3.814697265625e-06 L 19.76760482788086 3.814697265625e-06 L 26.35680389404297 11.42462348937988 L 19.76760482788086 22.8492431640625 L 6.589204788208008 22.8492431640625 L -5.7220458984375e-06 11.42462348937988 L 6.589204788208008 3.814697265625e-06 Z" stroke="none" fill="#19a998"/>
      </g>
      <g id="Polygone_18" data-name="Polygone 18" transform="translate(0 22.849)" fill="rgba(255,255,255,0)">
        <path d="M 18.90113639831543 21.3492431640625 L 7.455674648284912 21.3492431640625 L 1.731606125831604 11.42462348937988 L 7.455674648284912 1.500003457069397 L 18.90113639831543 1.500003457069397 L 24.62521362304688 11.42462348937988 L 18.90113639831543 21.3492431640625 Z" stroke="none"/>
        <path d="M 8.322153091430664 3.000003814697266 L 3.46320915222168 11.42462348937988 L 8.322153091430664 19.8492431640625 L 18.0346565246582 19.8492431640625 L 22.89359283447266 11.42462348937988 L 18.0346565246582 3.000003814697266 L 8.322153091430664 3.000003814697266 M 6.589204788208008 3.814697265625e-06 L 19.76760482788086 3.814697265625e-06 L 26.35680389404297 11.42462348937988 L 19.76760482788086 22.8492431640625 L 6.589204788208008 22.8492431640625 L -5.7220458984375e-06 11.42462348937988 L 6.589204788208008 3.814697265625e-06 Z" stroke="none" fill="#19a998"/>
      </g>
      <g id="Polygone_19" data-name="Polygone 19" fill="rgba(255,255,255,0)">
        <path d="M 18.90113639831543 21.3492431640625 L 7.455674648284912 21.3492431640625 L 1.731606125831604 11.42462348937988 L 7.455674648284912 1.500003457069397 L 18.90113639831543 1.500003457069397 L 24.62521362304688 11.42462348937988 L 18.90113639831543 21.3492431640625 Z" stroke="none"/>
        <path d="M 8.322153091430664 3.000003814697266 L 3.46320915222168 11.42462348937988 L 8.322153091430664 19.8492431640625 L 18.0346565246582 19.8492431640625 L 22.89359283447266 11.42462348937988 L 18.0346565246582 3.000003814697266 L 8.322153091430664 3.000003814697266 M 6.589204788208008 3.814697265625e-06 L 19.76760482788086 3.814697265625e-06 L 26.35680389404297 11.42462348937988 L 19.76760482788086 22.8492431640625 L 6.589204788208008 22.8492431640625 L -5.7220458984375e-06 11.42462348937988 L 6.589204788208008 3.814697265625e-06 Z" stroke="none" fill="#19a998"/>
      </g>
    </g>
    <g id="Groupe_52" data-name="Groupe 52" transform="translate(1253.941 920.295)">
      <path id="Tracé_187" data-name="Tracé 187" d="M900.072,114.512a13.389,13.389,0,0,0,1.06-1.56l-7.474-1.226,8.084.059a13.645,13.645,0,0,0,.26-10.8l-10.845,5.626,10-7.352a13.626,13.626,0,1,0-22.5,15.25A13.685,13.685,0,0,0,877.1,117l9.7,5.041-10.344-3.472a13.633,13.633,0,0,0,2.195,12.8,13.628,13.628,0,0,0,8.2,21.818,4.677,4.677,0,0,0-.269,1.583,4.49,4.49,0,0,0,.593,2.276,4.664,4.664,0,0,0,0,4.551,4.664,4.664,0,0,0,0,4.551,4.664,4.664,0,0,0,0,4.551,4.49,4.49,0,0,0-.593,2.276c0,2.057,1.273,3.723,2.845,3.723s2.845-1.666,2.845-3.723a4.493,4.493,0,0,0-.594-2.276,4.655,4.655,0,0,0,0-4.551,4.655,4.655,0,0,0,0-4.551,4.655,4.655,0,0,0,0-4.551,4.492,4.492,0,0,0,.594-2.276,4.69,4.69,0,0,0-.277-1.6,13.628,13.628,0,0,0,8.08-21.8,13.625,13.625,0,0,0,0-16.849Z" transform="translate(-773.785 -92.46)" fill="rgba(25,169,152,0.19)"/>
      <path id="Tracé_188" data-name="Tracé 188" d="M698.359,279.6a9.161,9.161,0,0,1-.708-1.043l5-.82-5.4.039a9.124,9.124,0,0,1-.174-7.219l7.253,3.762-6.688-4.917a9.112,9.112,0,1,1,15.045,10.2,9.07,9.07,0,0,1,1.039,1.661l-6.488,3.371,6.921-2.323a9.11,9.11,0,0,1-1.469,8.557,9.112,9.112,0,0,1-5.479,14.59,3.139,3.139,0,0,1,.18,1.058,3,3,0,0,1-.4,1.517,3.114,3.114,0,0,1,0,3.043,3.117,3.117,0,0,1,0,3.044,3.114,3.114,0,0,1,0,3.043,3,3,0,0,1,.4,1.517,1.967,1.967,0,1,1-3.793,0,3,3,0,0,1,.4-1.517,3.114,3.114,0,0,1,0-3.043,3.116,3.116,0,0,1,0-3.044,3.114,3.114,0,0,1,0-3.043,3,3,0,0,1-.4-1.517,3.128,3.128,0,0,1,.186-1.073,9.113,9.113,0,0,1-5.4-14.575,9.113,9.113,0,0,1,0-11.266Z" transform="translate(-617.131 -243.047)" fill="#d3efec"/>
      <ellipse id="Ellipse_12" data-name="Ellipse 12" cx="63.321" cy="7.965" rx="63.321" ry="7.965" transform="translate(7.645 74.478)" fill="#d3efec"/>
      <path id="Tracé_189" data-name="Tracé 189" d="M501.852,488.769c0,.253-.008.506-.022.748v.109a13.539,13.539,0,0,1-.578,3.147c-.009.032-.02.066-.03.1a14.56,14.56,0,0,1-1.3,2.919l-.054.091a16.248,16.248,0,0,1-2.023,2.713l-.078.083a18.461,18.461,0,0,1-2.848,2.488c-.035.027-.072.053-.108.077a21.057,21.057,0,0,1-3.435,1.952c-.166.075-.333.148-.506.22l-.152.063a23.784,23.784,0,0,1-5.744,1.559l-.242.033a25.433,25.433,0,0,1-3.34.219c-8.279,0-15.409-3.972-18.627-9.688q-.325-.573-.593-1.168l-.073-.163a13.723,13.723,0,0,1-1.147-4.917v-.126c0-.152-.006-.3-.006-.458a13.5,13.5,0,0,1,.46-3.5c.009-.035.018-.07.028-.1a14.33,14.33,0,0,1,1.391-3.328c.016-.029.033-.059.051-.088a16.115,16.115,0,0,1,2.094-2.819.908.908,0,0,1,.067-.075l.01-.01c.1-.106.2-.214.3-.319l.155-.157c.1-.1.207-.2.312-.3h.006q.379-.357.772-.692c.364-.308.745-.606,1.138-.891l.085-.063a21.113,21.113,0,0,1,3.315-1.936c.034-.016.069-.034.1-.048a23.015,23.015,0,0,1,4.07-1.434c.044-.013.087-.023.126-.033a24.87,24.87,0,0,1,5.287-.7h.179c.162,0,.325-.006.488-.006,8.2,0,15.28,3.9,18.539,9.533.029.051.057.1.086.15l.126.221c.07.126.135.253.2.387.03.061.059.12.088.181.018.035.037.071.053.107h0a13.939,13.939,0,0,1,1.066,3.113c.01.042.018.082.026.126A13.525,13.525,0,0,1,501.852,488.769Z" transform="translate(-411.439 -424.241)" fill="#19a998"/>
      <g id="Groupe_43" data-name="Groupe 43" transform="translate(69.297 48.018)" opacity="0.2">
        <path id="Tracé_190" data-name="Tracé 190" d="M636.737,481.923q-1.4-.531-2.781-1.1a107.836,107.836,0,0,1-16.505-8.568h.18a107.864,107.864,0,0,0,19.027,9.528C636.681,481.827,636.709,481.874,636.737,481.923Z" transform="translate(-617.45 -472.25)" fill="#f2f2f2"/>
      </g>
      <g id="Groupe_44" data-name="Groupe 44" transform="translate(63.873 48.719)" opacity="0.2">
        <path id="Tracé_191" data-name="Tracé 191" d="M600.817,490.9q-3.414-1.138-6.755-2.529a107.846,107.846,0,0,1-16.667-8.665q-1.5-.952-2.845-1.877l.126-.032q1.316.9,2.781,1.831a107.8,107.8,0,0,0,23.332,11.151C600.8,490.822,600.808,490.863,600.817,490.9Z" transform="translate(-574.55 -477.8)" fill="#f2f2f2"/>
      </g>
      <g id="Groupe_45" data-name="Groupe 45" transform="translate(59.703 50.185)" opacity="0.2">
        <path id="Tracé_192" data-name="Tracé 192" d="M572.258,504.482v.109q-4.765-1.453-9.413-3.373a107.851,107.851,0,0,1-16.669-8.672c-1.675-1.066-3.212-2.11-4.606-3.106l.1-.049c1.382.987,2.908,2.023,4.564,3.077A107.492,107.492,0,0,0,572.258,504.482Z" transform="translate(-541.57 -489.39)" fill="#f2f2f2"/>
      </g>
      <g id="Groupe_46" data-name="Groupe 46" transform="translate(56.3 52.171)" opacity="0.2">
        <path id="Tracé_193" data-name="Tracé 193" d="M548.157,521.46c-.009.034-.02.067-.03.1a104.018,104.018,0,0,1-11.217-3.907,107.741,107.741,0,0,1-16.667-8.67c-2.081-1.324-3.948-2.616-5.593-3.821l.085-.062c1.644,1.2,3.5,2.486,5.57,3.8A107.262,107.262,0,0,0,548.157,521.46Z" transform="translate(-514.65 -505.1)" fill="#f2f2f2"/>
      </g>
      <g id="Groupe_47" data-name="Groupe 47" transform="translate(53.537 54.611)" opacity="0.2">
        <path id="Tracé_194" data-name="Tracé 194" d="M527.742,541.338l-.055.091a103.725,103.725,0,0,1-12.277-4.2,107.922,107.922,0,0,1-16.668-8.67c-2.23-1.42-4.218-2.8-5.942-4.082.02-.024.043-.049.067-.073,1.727,1.277,3.713,2.655,5.942,4.077A107.169,107.169,0,0,0,527.742,541.338Z" transform="translate(-492.8 -524.4)" fill="#f2f2f2"/>
      </g>
      <g id="Groupe_48" data-name="Groupe 48" transform="translate(51.389 57.507)" opacity="0.2">
        <path id="Tracé_195" data-name="Tracé 195" d="M510.824,564.155l-.078.083a103.471,103.471,0,0,1-12.59-4.286,107.856,107.856,0,0,1-16.668-8.67c-2.114-1.348-4.01-2.661-5.678-3.885.016-.029.033-.058.051-.087,1.668,1.225,3.569,2.542,5.689,3.893A107.137,107.137,0,0,0,510.824,564.155Z" transform="translate(-475.81 -547.31)" fill="#f2f2f2"/>
      </g>
      <g id="Groupe_49" data-name="Groupe 49" transform="translate(49.967 60.924)" opacity="0.2">
        <path id="Tracé_196" data-name="Tracé 196" d="M498.07,590.331c-.035.027-.072.053-.107.077a103.876,103.876,0,0,1-12.046-4.138,107.8,107.8,0,0,1-16.668-8.67c-1.707-1.087-3.273-2.149-4.688-3.167.009-.034.018-.068.028-.1,1.425,1.02,3,2.095,4.723,3.191A107.239,107.239,0,0,0,498.07,590.331Z" transform="translate(-464.56 -574.33)" fill="#f2f2f2"/>
      </g>
      <g id="Groupe_50" data-name="Groupe 50" transform="translate(49.522 64.984)" opacity="0.2">
        <path id="Tracé_197" data-name="Tracé 197" d="M490.95,620.639l-.152.063a103.832,103.832,0,0,1-10.367-3.66c-3.287-1.359-6.525-2.893-9.683-4.583q-3.565-1.912-6.985-4.087-1.43-.91-2.723-1.8v-.126q1.325.9,2.793,1.841c2.077,1.324,4.479,2.747,7.18,4.185A106.72,106.72,0,0,0,490.95,620.639Z" transform="translate(-461.04 -606.45)" fill="#f2f2f2"/>
      </g>
      <g id="Groupe_51" data-name="Groupe 51" transform="translate(50.67 70.028)" opacity="0.2">
        <path id="Tracé_198" data-name="Tracé 198" d="M492.988,657.108l-.241.033q-3.435-1.149-6.8-2.54a107.424,107.424,0,0,1-14.07-7.074q-.845-.506-1.681-1.024l-.073-.163q.922.574,1.919,1.169A107.668,107.668,0,0,0,492.988,657.108Z" transform="translate(-470.12 -646.34)" fill="#f2f2f2"/>
      </g>
      <path id="Tracé_199" data-name="Tracé 199" d="M503.944,661.606c-.166.075-.332.148-.506.22l-.152.063a23.785,23.785,0,0,1-5.739,1.559l-.241.033a25.417,25.417,0,0,1-3.34.219c-8.279,0-15.409-3.972-18.627-9.688.362-.056.724-.1,1.089-.144l.164-.018c.979-.1,1.965-.162,2.948-.2a35.313,35.313,0,0,1,3.694,0c.086,0,.172.01.253.018a16.956,16.956,0,0,1,2.492.364,29.709,29.709,0,0,1,7.053,2.984A51.883,51.883,0,0,0,503.944,661.606Z" transform="translate(-424.01 -582.652)" opacity="0.1"/>
      <path id="Tracé_200" data-name="Tracé 200" d="M520.06,481.7c-3.259-5.63-10.335-9.533-18.539-9.533h-.668a24.785,24.785,0,0,0-5.287.7l-.126.032a23.214,23.214,0,0,0-4.07,1.434l-.1.049a21.023,21.023,0,0,0-3.315,1.937l-.085.062a18.373,18.373,0,0,0-2.689,2.369,9.067,9.067,0,0,1-.759,3.106c-.331.683-.674,1.34-.2,2.023a2.459,2.459,0,0,0,1.577,1.063c1.594.064,2.48-2.067,3.231-3.129a15.98,15.98,0,0,1,4.522-3.846,10.413,10.413,0,0,1,2.234-1.216,7.671,7.671,0,0,1,2.092-.368,12.165,12.165,0,0,1,5.689.989c2.023.917,3.818,2.5,6.026,2.716a23.008,23.008,0,0,1,3,.134c1.741.408,2.948,2.051,4.642,2.625a5.359,5.359,0,0,0,3.391-.111q-.216-.455-.464-.9A.542.542,0,0,1,520.06,481.7Z" transform="translate(-431.562 -424.162)" opacity="0.1"/>
      <path id="Tracé_201" data-name="Tracé 201" d="M309.83,571.195c-.6.632-1.272,1.187-1.89,1.8-2.29,2.276-3.757,5.233-5.816,7.712a13.3,13.3,0,0,0-1.572,2.075,3.138,3.138,0,0,0-.325,2.51,4.365,4.365,0,0,0,1.4,1.709,6.439,6.439,0,0,0,1.144.838,6.871,6.871,0,0,0,3.153.55c.594.009,1.319-.058,1.573-.6a10.438,10.438,0,0,1-2.63-1.79,3.562,3.562,0,0,1-1.048-1.478,3.277,3.277,0,0,1,.794-2.891c.646-.816,1.479-1.469,2.11-2.3a15.94,15.94,0,0,1,1.8-2.451,14.725,14.725,0,0,1,1.77-1.147,12.9,12.9,0,0,0,2.276-2.087l3.73-4.012a.406.406,0,0,0-.027-.688c-.812-.833-2.341-2.3-3.457-1.2C311.742,568.812,310.871,570.1,309.83,571.195Z" transform="translate(-270.916 -507.319)" fill="#a0616a"/>
      <path id="Tracé_202" data-name="Tracé 202" d="M309.83,571.195c-.6.632-1.272,1.187-1.89,1.8-2.29,2.276-3.757,5.233-5.816,7.712a13.3,13.3,0,0,0-1.572,2.075,3.138,3.138,0,0,0-.325,2.51,4.365,4.365,0,0,0,1.4,1.709,6.439,6.439,0,0,0,1.144.838,6.871,6.871,0,0,0,3.153.55c.594.009,1.319-.058,1.573-.6a10.438,10.438,0,0,1-2.63-1.79,3.562,3.562,0,0,1-1.048-1.478,3.277,3.277,0,0,1,.794-2.891c.646-.816,1.479-1.469,2.11-2.3a15.94,15.94,0,0,1,1.8-2.451,14.725,14.725,0,0,1,1.77-1.147,12.9,12.9,0,0,0,2.276-2.087l3.73-4.012a.406.406,0,0,0-.027-.688c-.812-.833-2.341-2.3-3.457-1.2C311.742,568.812,310.871,570.1,309.83,571.195Z" transform="translate(-270.916 -507.319)" opacity="0.1"/>
      <path id="Tracé_203" data-name="Tracé 203" d="M419.3,481.243c.752-.159,1.563.241,2.29-.008a2.687,2.687,0,0,0,1.024-.789l1.214-1.293a4.723,4.723,0,0,0,.9-1.193,5.808,5.808,0,0,0,.344-1.281,5.438,5.438,0,0,1,1.439-3.019,4.039,4.039,0,0,1,3.985-.68,6.69,6.69,0,0,1,3.226,2.647c-.716.86-1.517,1.654-2.231,2.513a4.146,4.146,0,0,1-.8.8,4.455,4.455,0,0,1-1.066.472,5,5,0,0,0-3.185,2.372,7.733,7.733,0,0,0-.354,1.378,4.694,4.694,0,0,1-1.192,2.374,2.546,2.546,0,0,1-2.468.7,4.034,4.034,0,0,1-2.015-2.094A10.1,10.1,0,0,1,419.3,481.243Z" transform="translate(-375.055 -424.659)" fill="#a0616a"/>
      <path id="Tracé_204" data-name="Tracé 204" d="M419.3,481.243c.752-.159,1.563.241,2.29-.008a2.687,2.687,0,0,0,1.024-.789l1.214-1.293a4.723,4.723,0,0,0,.9-1.193,5.808,5.808,0,0,0,.344-1.281,5.438,5.438,0,0,1,1.439-3.019,4.039,4.039,0,0,1,3.985-.68,6.69,6.69,0,0,1,3.226,2.647c-.716.86-1.517,1.654-2.231,2.513a4.146,4.146,0,0,1-.8.8,4.455,4.455,0,0,1-1.066.472,5,5,0,0,0-3.185,2.372,7.733,7.733,0,0,0-.354,1.378,4.694,4.694,0,0,1-1.192,2.374,2.546,2.546,0,0,1-2.468.7,4.034,4.034,0,0,1-2.015-2.094A10.1,10.1,0,0,1,419.3,481.243Z" transform="translate(-375.055 -424.659)" opacity="0.1"/>
      <path id="Tracé_205" data-name="Tracé 205" d="M679.71,445.747c4.751,1.7,9.474,3.714,13.4,6.89,1.8,1.455,3.4,3.134,5.109,4.693.9.817,1.819,1.6,2.743,2.383l6.56,5.563a23.7,23.7,0,0,0,2.528,1.956c2.12,1.363,4.649,2.056,6.725,3.521a6.726,6.726,0,0,0,.367,2.224,1.279,1.279,0,0,0,1.3.846c3.269-.188,6.584,1.4,9.878,1a.62.62,0,0,0,.464-.3c.221-.387-.157-.748-.488-.98l-4.472-3.13c-.737-.516-1.474-1.032-2.225-1.526a95.833,95.833,0,0,1-8.133-5.35c-.537-.437-1.054-.9-1.573-1.359-2.741-2.435-5.483-4.873-8.081-7.459-3.776-3.761-7.348-7.957-11.092-11.751a10.372,10.372,0,0,0-1.148-1.051,10.578,10.578,0,0,0-1.253-.767l-4.752-2.611a3.6,3.6,0,0,0-2.32-.649,1.244,1.244,0,0,0-1.138.291,3.894,3.894,0,0,0-.708,1.02,6.212,6.212,0,0,0-.619,1.41c-.169.671-.114,1.391-.31,2.051-.126.436-.362.834-.521,1.264A4.343,4.343,0,0,0,679.71,445.747Z" transform="translate(-602.529 -394.185)" fill="#a0616a"/>
      <path id="Tracé_206" data-name="Tracé 206" d="M679.71,445.747c4.751,1.7,9.474,3.714,13.4,6.89,1.8,1.455,3.4,3.134,5.109,4.693.9.817,1.819,1.6,2.743,2.383l6.56,5.563a23.7,23.7,0,0,0,2.528,1.956c2.12,1.363,4.649,2.056,6.725,3.521a6.726,6.726,0,0,0,.367,2.224,1.279,1.279,0,0,0,1.3.846c3.269-.188,6.584,1.4,9.878,1a.62.62,0,0,0,.464-.3c.221-.387-.157-.748-.488-.98l-4.472-3.13c-.737-.516-1.474-1.032-2.225-1.526a95.833,95.833,0,0,1-8.133-5.35c-.537-.437-1.054-.9-1.573-1.359-2.741-2.435-5.483-4.873-8.081-7.459-3.776-3.761-7.348-7.957-11.092-11.751a10.372,10.372,0,0,0-1.148-1.051,10.578,10.578,0,0,0-1.253-.767l-4.752-2.611a3.6,3.6,0,0,0-2.32-.649,1.244,1.244,0,0,0-1.138.291,3.894,3.894,0,0,0-.708,1.02,6.212,6.212,0,0,0-.619,1.41c-.169.671-.114,1.391-.31,2.051-.126.436-.362.834-.521,1.264A4.343,4.343,0,0,0,679.71,445.747Z" transform="translate(-602.529 -394.185)" opacity="0.1"/>
      <circle id="Ellipse_13" data-name="Ellipse 13" cx="5.349" cy="5.349" r="5.349" transform="translate(39.595 55.717)" fill="#a0616a"/>
      <path id="Tracé_207" data-name="Tracé 207" d="M629.016,421.232a2.619,2.619,0,0,1,2.066.651,2.57,2.57,0,0,1,.245,2.091,22.593,22.593,0,0,1-1.793,6.61.944.944,0,0,1-.368.449c-.3.153-.65-.027-.934-.2a24.369,24.369,0,0,0-6.506-3.287.589.589,0,0,1-.368-.2.567.567,0,0,1-.021-.437c.235-1.048.532-2.084.717-3.143.111-.632-.095-2.149.465-2.541.593-.417,2.3-.065,3-.053Z" transform="translate(-551.519 -379.482)" fill="#a0616a"/>
      <path id="Tracé_208" data-name="Tracé 208" d="M702.107,450.757c4.751,1.7,9.474,3.714,13.4,6.889,1.8,1.456,3.4,3.135,5.109,4.694.9.817,1.819,1.6,2.743,2.382l6.56,5.563a23.68,23.68,0,0,0,2.529,1.955c2.129,1.368,4.658,2.058,6.726,3.517a6.725,6.725,0,0,0,.367,2.225,1.281,1.281,0,0,0,1.3.846c3.269-.19,6.584,1.4,9.878,1a.62.62,0,0,0,.464-.3c.221-.379-.157-.748-.488-.98l-4.472-3.129c-.737-.516-1.474-1.032-2.225-1.526a96.852,96.852,0,0,1-8.128-5.349c-.537-.437-1.054-.9-1.573-1.359-2.741-2.435-5.483-4.872-8.083-7.459-3.775-3.761-7.347-7.957-11.09-11.758a10.511,10.511,0,0,0-1.152-1.037,10.751,10.751,0,0,0-1.253-.766l-4.752-2.611a3.6,3.6,0,0,0-2.32-.649,1.24,1.24,0,0,0-1.138.289,3.9,3.9,0,0,0-.708,1.022,6.233,6.233,0,0,0-.62,1.408c-.169.671-.114,1.391-.31,2.052-.126.436-.362.834-.521,1.264A4.342,4.342,0,0,0,702.107,450.757Z" transform="translate(-622.094 -398.566)" fill="#a0616a"/>
      <path id="Tracé_209" data-name="Tracé 209" d="M670.137,431.8l.15-2.188a7.608,7.608,0,0,1,.274-1.814,7.127,7.127,0,0,1,1-1.821,4.386,4.386,0,0,1,.759-.9c.431-.363.989-.56,1.391-.953.115-.113.222-.278.154-.423a.424.424,0,0,0-.126-.137,14.279,14.279,0,0,0-3.353-1.861l-2.218-.981a14.574,14.574,0,0,0-2.363,4.067,6.012,6.012,0,0,1-.272.781c-.284.593-.824,1.025-1.167,1.587a5.478,5.478,0,0,0-.584,1.752,1.932,1.932,0,0,0-.021,1.075,1.965,1.965,0,0,0,.837.846,10.553,10.553,0,0,0,4.769,2.091c.321.024.748.185.851-.126C670.289,432.584,670.121,432.055,670.137,431.8Z" transform="translate(-588.548 -379.217)" fill="#129cad"/>
      <path id="Tracé_210" data-name="Tracé 210" d="M366.208,551.735a2.193,2.193,0,0,0,.392,2.55,8.9,8.9,0,0,1,1.662,2.2c.77,2.077-1.378,4.172-1.3,6.382.066,1.97,1.807,3.4,3.287,4.706,3.146,2.781,5.833,6.658,5.479,10.845a6.309,6.309,0,0,0,3.489-2.575,6.79,6.79,0,0,1,.589,3.367,11.186,11.186,0,0,0,4.678-10.392c-.236-1.876-.96-3.706-.847-5.592a19.619,19.619,0,0,1,.585-3.014,18.331,18.331,0,0,0,.417-3.929c0-1.507-.279-3.181-1.468-4.108a5.843,5.843,0,0,0-3.684-.808c-1.354.009-2.708.015-4.06.1-1.379.086-2.8.541-4.159.575C369.753,552.084,367.623,549.838,366.208,551.735Z" transform="translate(-328.437 -493.002)" fill="#3f3d56"/>
      <path id="Tracé_211" data-name="Tracé 211" d="M282.241,478.73a5.585,5.585,0,0,0-2.34,1.5c-.4.437-.737.937-1.156,1.36a11.446,11.446,0,0,1-1.689,1.29c-1.114.771-2.157,1.637-3.2,2.5l-5.133,4.261c-.8.666-1.606,1.334-2.363,2.052-.934.885-1.8,1.851-2.794,2.666-.584.478-1.212.9-1.748,1.436a13.073,13.073,0,0,0-1.33,1.666,80.237,80.237,0,0,1-5.436,6.746,16.92,16.92,0,0,1-2.666,2.529c-2.068,1.491-3.639,3.722-5.457,5.511-.154.152-.324.368-.229.564a.424.424,0,0,0,.253.191c1.33.5,2.475-1.662,3.861-1.357.632.139,1.02.737,1.473,1.194s1.229.793,1.7.357a7.515,7.515,0,0,1,.479-3.747,11.829,11.829,0,0,1,3.953-4.708c1.641-1.269,3.427-2.352,4.969-3.741,2.585-2.33,4.474-5.509,7.541-7.153,1.2-.645,2.529-1.022,3.726-1.681a14.152,14.152,0,0,0,5.2-5.863,3.133,3.133,0,0,1,.6-.861,3.377,3.377,0,0,1,.872-.5,13.418,13.418,0,0,0,4.3-3.149c-.379-.272-.735-.563-1.113-.836a4.505,4.505,0,0,1-.838-.717,9.7,9.7,0,0,1-.632-.982A1.256,1.256,0,0,0,282.241,478.73Z" transform="translate(-224.253 -429.893)" fill="#a0616a"/>
      <path id="Tracé_212" data-name="Tracé 212" d="M485.421,420.817a1.405,1.405,0,0,1-.329-1.192q.082-2,.162-3.989a3.511,3.511,0,0,1,.833-2.6q-3.066-.616-6.182-.944a9.944,9.944,0,0,0-2.482-.039,10.808,10.808,0,0,0-2.831.97,17.446,17.446,0,0,0-2.936,1.553,11.8,11.8,0,0,1-1.09.748,13.413,13.413,0,0,1-2.219.759,7.228,7.228,0,0,0-4.69,8.568c.253-.654.43-1.338.726-1.974a3.251,3.251,0,0,1,1.353-1.561,2.961,2.961,0,0,1,2.133-.14,11.242,11.242,0,0,1,5.486,4.3c1.391-1.034,2.813-2.023,4.206-3.062a6.329,6.329,0,0,1,4.836-1.572A11.17,11.17,0,0,1,485.421,420.817Z" transform="translate(-413.621 -371.59)" fill="#129cad"/>
      <path id="Tracé_213" data-name="Tracé 213" d="M395.408,417.111l-.168,2.333.607-.5-.3-2.063Z" transform="translate(-345.377 -364.173)" fill="#ff6584"/>
      <path id="Tracé_215" data-name="Tracé 215" d="M179.876,280.605a3.653,3.653,0,0,0-2.12.23,3.124,3.124,0,0,1-2.546-.006,3.568,3.568,0,0,0-2.994.059,1.865,1.865,0,0,1-.862.215c-1.214,0-2.224-1.223-2.434-2.836a2.328,2.328,0,0,0,.607-.654,3.409,3.409,0,0,1,6.086-.022,2.34,2.34,0,0,0,2.023,1.107h.032A2.541,2.541,0,0,1,179.876,280.605Z" transform="translate(-156.33 -252.558)" opacity="0.03"/>
      <path id="Tracé_216" data-name="Tracé 216" d="M511.29,317.262l-.978.616.594-1.08a.961.961,0,0,0-.592-.211h-.01a1.194,1.194,0,0,1-.2-.015l-.333.21.143-.253a1.177,1.177,0,0,1-.58-.441l-.594.379.379-.681a1.737,1.737,0,0,0-1.341-.675,1.808,1.808,0,0,0-1.517.939,1.138,1.138,0,0,1-1.011.542h-.033c-.681,0-1.234.772-1.234,1.726s.552,1.726,1.234,1.726a.929.929,0,0,0,.43-.107,1.77,1.77,0,0,1,1.493-.029,1.569,1.569,0,0,0,.632.137,1.553,1.553,0,0,0,.632-.134,1.78,1.78,0,0,1,1.48.029.926.926,0,0,0,.426.1c.681,0,1.234-.772,1.234-1.726A2.187,2.187,0,0,0,511.29,317.262Z" transform="translate(-449.029 -286.959)" fill="#f2f2f2"/>
      <path id="Tracé_217" data-name="Tracé 217" d="M509.454,335.32a1.82,1.82,0,0,0-1.057.115,1.584,1.584,0,0,1-.632.134,1.553,1.553,0,0,1-.638-.137,1.78,1.78,0,0,0-1.493.03.925.925,0,0,1-.43.107c-.606,0-1.109-.611-1.214-1.415a1.166,1.166,0,0,0,.3-.326,1.7,1.7,0,0,1,3.034-.011,1.171,1.171,0,0,0,1.011.554h.015A1.261,1.261,0,0,1,509.454,335.32Z" transform="translate(-449.038 -302.491)" opacity="0.03"/>
      <path id="Tracé_218" data-name="Tracé 218" d="M596.108,154.448l1.572,1-.955-1.736a1.558,1.558,0,0,1,.951-.339h.025a1.976,1.976,0,0,0,.326-.024l.534.338-.233-.417a1.9,1.9,0,0,0,.932-.707l.955.6-.6-1.095a2.789,2.789,0,0,1,2.137-1.08,2.926,2.926,0,0,1,2.445,1.508,1.827,1.827,0,0,0,1.617.871h.053c1.095,0,1.982,1.24,1.982,2.773s-.885,2.771-1.982,2.771a1.492,1.492,0,0,1-.69-.172,2.856,2.856,0,0,0-2.4-.047,2.528,2.528,0,0,1-1.025.219,2.5,2.5,0,0,1-1.011-.215,2.863,2.863,0,0,0-2.378.047,1.5,1.5,0,0,1-.684.168c-1.095,0-1.982-1.24-1.982-2.771A3.527,3.527,0,0,1,596.108,154.448Z" transform="translate(-529.144 -143.588)" fill="#f2f2f2"/>
      <path id="Tracé_219" data-name="Tracé 219" d="M622.4,183.454a2.926,2.926,0,0,1,1.7.185,2.5,2.5,0,0,0,2.039,0,2.866,2.866,0,0,1,2.4.047,1.478,1.478,0,0,0,.69.173c.972,0,1.781-.98,1.951-2.276a1.858,1.858,0,0,1-.487-.525,2.735,2.735,0,0,0-4.88-.016,1.875,1.875,0,0,1-1.616.885h-.025A2.042,2.042,0,0,0,622.4,183.454Z" transform="translate(-552.478 -168.538)" opacity="0.03"/>
      <path id="Tracé_220" data-name="Tracé 220" d="M355.185,390.978c-.066-.1-.388,0-.719.216-.058.039-.114.08-.164.12a2.384,2.384,0,0,0-.736-.24l.014-.01a5.593,5.593,0,0,0,.924-.759h-.712l1.033-.4c.126-.2.167-.369.1-.474-.187-.281-1.09-.01-2.023.607a5,5,0,0,0-1.121.977c-.759.089-1.291.311-1.291.57,0,.18.253.341.664.454l-.024.015c-.928.616-1.53,1.344-1.343,1.625.164.253.885.066,1.692-.4l-.535-.253.843.058.018-.011c.09-.059.176-.12.259-.181l-.632-.293.927.063a4.438,4.438,0,0,0,.491-.474c.863-.046,1.539-.253,1.656-.521a2.307,2.307,0,0,0,.21-.109,1.974,1.974,0,0,0,.329-.268h-.253l.368-.142C355.2,391.075,355.211,391.016,355.185,390.978Z" transform="translate(-314.298 -351.79)" fill="#f2f2f2"/>
      <path id="Tracé_221" data-name="Tracé 221" d="M146.9,672.354a6.193,6.193,0,0,1-.126,1.288c-.018.08-.035.158-.053.234a4.049,4.049,0,0,1-3.388,3.362h-.162c-1.678,0-3.1-1.448-3.565-3.441-.013-.053-.024-.106-.037-.159a6.2,6.2,0,0,1-.133-1.288c0-2.7,1.673-4.889,3.735-4.889S146.9,669.654,146.9,672.354Z" transform="translate(-130.577 -594.762)" fill="#3f3d56"/>
      <path id="Tracé_222" data-name="Tracé 222" d="M146.9,672.38a6.2,6.2,0,0,1-.126,1.288c-.018.08-.035.158-.053.234a1.5,1.5,0,0,1-.168-.006,7.591,7.591,0,0,1-1.221-.168,7.491,7.491,0,0,1-1.09.253,7.6,7.6,0,0,1-.853.08H143.1a7.583,7.583,0,0,1-1.023-.068,7.451,7.451,0,0,1-1.6-.4,7.67,7.67,0,0,1-.867.233c-.013-.053-.024-.106-.037-.159a6.2,6.2,0,0,1-.133-1.288c0-2.7,1.673-4.889,3.735-4.889S146.9,669.68,146.9,672.38Z" transform="translate(-130.577 -594.788)" opacity="0.1"/>
      <path id="Tracé_223" data-name="Tracé 223" d="M92.795,558.1a7.559,7.559,0,0,0-.813-3.414l-4.393,1.367,3.856-2.268a7.586,7.586,0,0,0-5.7-3.252,7.634,7.634,0,0,0-.6-.794L78.832,551.7l5.176-3.037a7.586,7.586,0,0,0-11.946,4.046l5.4,6.22L71.6,554.691a7.592,7.592,0,0,0,6.794,13.4,7.619,7.619,0,0,0,4.857.129,7.6,7.6,0,0,0,9.229-7.412c0-.169-.006-.336-.018-.506A7.577,7.577,0,0,0,92.795,558.1Z" transform="translate(-68.5 -489.613)" fill="#129cad"/>
      <path id="Tracé_224" data-name="Tracé 224" d="M92.762,633.219a20.254,20.254,0,0,0-7.028-.09c-2.637.438-5.333,1.4-7.912.7-1.517-.412-2.824-1.364-4.3-1.9a8.152,8.152,0,0,0-4.443-.26,7.595,7.595,0,0,0,9.41,10.136,7.618,7.618,0,0,0,4.857.131,7.6,7.6,0,0,0,9.229-7.412c0-.169-.006-.336-.018-.506A7.249,7.249,0,0,0,92.762,633.219Z" transform="translate(-68.599 -563.327)" opacity="0.1"/>
    </g>
    <g id="Groupe_53" data-name="Groupe 53" transform="translate(1274.203 905.698) rotate(53)">
      <g id="Polygone_17-2" data-name="Polygone 17" transform="translate(19.542 11.425)" fill="rgba(255,255,255,0)">
        <path d="M 18.90113639831543 21.3492431640625 L 7.455674648284912 21.3492431640625 L 1.731606125831604 11.42462348937988 L 7.455674648284912 1.500003457069397 L 18.90113639831543 1.500003457069397 L 24.62521362304688 11.42462348937988 L 18.90113639831543 21.3492431640625 Z" stroke="none"/>
        <path d="M 8.322153091430664 3.000003814697266 L 3.46320915222168 11.42462348937988 L 8.322153091430664 19.8492431640625 L 18.0346565246582 19.8492431640625 L 22.89359283447266 11.42462348937988 L 18.0346565246582 3.000003814697266 L 8.322153091430664 3.000003814697266 M 6.589204788208008 3.814697265625e-06 L 19.76760482788086 3.814697265625e-06 L 26.35680389404297 11.42462348937988 L 19.76760482788086 22.8492431640625 L 6.589204788208008 22.8492431640625 L -5.7220458984375e-06 11.42462348937988 L 6.589204788208008 3.814697265625e-06 Z" stroke="none" fill="#129cad"/>
      </g>
      <g id="Polygone_18-2" data-name="Polygone 18" transform="translate(0 22.849)" fill="rgba(255,255,255,0)">
        <path d="M 18.90113639831543 21.3492431640625 L 7.455674648284912 21.3492431640625 L 1.731606125831604 11.42462348937988 L 7.455674648284912 1.500003457069397 L 18.90113639831543 1.500003457069397 L 24.62521362304688 11.42462348937988 L 18.90113639831543 21.3492431640625 Z" stroke="none"/>
        <path d="M 8.322153091430664 3.000003814697266 L 3.46320915222168 11.42462348937988 L 8.322153091430664 19.8492431640625 L 18.0346565246582 19.8492431640625 L 22.89359283447266 11.42462348937988 L 18.0346565246582 3.000003814697266 L 8.322153091430664 3.000003814697266 M 6.589204788208008 3.814697265625e-06 L 19.76760482788086 3.814697265625e-06 L 26.35680389404297 11.42462348937988 L 19.76760482788086 22.8492431640625 L 6.589204788208008 22.8492431640625 L -5.7220458984375e-06 11.42462348937988 L 6.589204788208008 3.814697265625e-06 Z" stroke="none" fill="#129cad"/>
      </g>
      <g id="Polygone_19-2" data-name="Polygone 19" fill="rgba(255,255,255,0)">
        <path d="M 18.90113639831543 21.3492431640625 L 7.455674648284912 21.3492431640625 L 1.731606125831604 11.42462348937988 L 7.455674648284912 1.500003457069397 L 18.90113639831543 1.500003457069397 L 24.62521362304688 11.42462348937988 L 18.90113639831543 21.3492431640625 Z" stroke="none"/>
        <path d="M 8.322153091430664 3.000003814697266 L 3.46320915222168 11.42462348937988 L 8.322153091430664 19.8492431640625 L 18.0346565246582 19.8492431640625 L 22.89359283447266 11.42462348937988 L 18.0346565246582 3.000003814697266 L 8.322153091430664 3.000003814697266 M 6.589204788208008 3.814697265625e-06 L 19.76760482788086 3.814697265625e-06 L 26.35680389404297 11.42462348937988 L 19.76760482788086 22.8492431640625 L 6.589204788208008 22.8492431640625 L -5.7220458984375e-06 11.42462348937988 L 6.589204788208008 3.814697265625e-06 Z" stroke="none" fill="#129cad"/>
      </g>
    </g>
  </g>
</svg>
