<svg xmlns="http://www.w3.org/2000/svg" width="100" height="100" viewBox="0 0 100 100">
  <g id="fire_blue" transform="translate(-186 -709)">
    <rect id="Rectangle_50" data-name="Rectangle 50" width="100" height="100" transform="translate(186 709)" fill="rgba(255,255,255,0)"/>
    <g id="Groupe_33" data-name="Groupe 33" transform="translate(-6.76 4.055)">
      <path id="Tracé_146" data-name="Tracé 146" d="M15.679,34.7a39.068,39.068,0,0,1,.462-6.57,19.738,19.738,0,0,1,3.872-9.044,53.626,53.626,0,0,0,4.089-5.83,10.109,10.109,0,0,0,1.558-4.81,16.486,16.486,0,0,0-.738-4.828A27.136,27.136,0,0,0,23.594.01c2.05.268,7.925,5.821,10.874,10.063a26.518,26.518,0,0,1,4.914,14c2.911-2.778,3.62-6.173,3.16-9.925.329,0,.374.2.462.343a93.182,93.182,0,0,1,8,15.96,46.057,46.057,0,0,1,2.952,11.28c.67,6.179-.4,11.944-4.467,16.858a23.5,23.5,0,0,1-12.18,7.485,11.975,11.975,0,0,1-2.6.519,2.883,2.883,0,0,1,.3-.25c3.236-1.8,4.558-4.79,5.086-8.258a19.667,19.667,0,0,0-1.953-11.157,37.58,37.58,0,0,0-3.311-5.94,5.652,5.652,0,0,1-1.148,4.246,2.971,2.971,0,0,1-.214.259c-.106.1-.189.293-.379.2-.135-.068-.1-.234-.113-.363-.4-4.986-3.32-8.36-7.149-11.148a1.491,1.491,0,0,0-.3-.122v2.788a13.549,13.549,0,0,1-4.657,10.331,48.047,48.047,0,0,0-4.17,4.379c-4.366,5.212-1.405,12.794,3.067,14.835a1.317,1.317,0,0,1,.174.131,2.964,2.964,0,0,1-1.637-.041A27.869,27.869,0,0,1,5.729,62.1,12.876,12.876,0,0,1,.009,51.458a16.922,16.922,0,0,1,3.383-10.75c1.015-1.425,2.108-2.788,3.2-4.15a8.446,8.446,0,0,0,1.7-6.19,14.068,14.068,0,0,0-.733-3.543c-.047-.137-.171-.311-.034-.438s.3.013.422.086a24.75,24.75,0,0,1,5.435,4.034,11.324,11.324,0,0,1,2.124,3.787c.056.137.113.273.171.41Z" transform="translate(215.765 720.935)" fill="#008297"/>
      <path id="Tracé_147" data-name="Tracé 147" d="M8653.332,4088.4a28.168,28.168,0,0,0,15.512,0c4.606-1.271,5.822-6.939,5.074-12.833-.644-5.069-2.847-10.314-5.381-13-.88,3.74-1.784,4.955-1.784,4.955s.221-7.261-7.811-11.882c.44,7.371-.99,9.242-4.07,12.652s-6.6,5.171-6.821,11.441A10.9,10.9,0,0,0,8653.332,4088.4Z" transform="translate(-8417.954 -3300.94)" fill="#19a998"/>
    </g>
  </g>
</svg>
