<svg xmlns="http://www.w3.org/2000/svg" xmlns:xlink="http://www.w3.org/1999/xlink" width="322" height="243" viewBox="0 0 322 243">
  <defs>
    <linearGradient id="linear-gradient" x1="1.199" y1="0.217" x2="1.108" y2="1.354" gradientUnits="objectBoundingBox">
      <stop offset="0" stop-color="#008297"/>
      <stop offset="1" stop-color="#008297"/>
    </linearGradient>
  </defs>
  <g id="hash_tag" transform="translate(-162 -571)">
    <rect id="Rectangle_174" data-name="Rectangle 174" width="322" height="243" transform="translate(162 571)" fill="rgba(255,255,255,0)"/>
    <g id="Tempest_logo_fire" transform="matrix(0.951, -0.309, 0.309, 0.951, -335.825, -106.812)">
      <path id="Tracé_70" data-name="Tracé 70" d="M349.144,965.151c0-2.91-.082-5.823.022-8.731.117-3.265,1.522-4.2,4.635-3.16a2.766,2.766,0,0,0,1.975-.067,9.537,9.537,0,0,1,8.839,1.116,2.674,2.674,0,0,0,3.247-.073c6.755-3.91,14.228-.375,15.109,7.382a102.01,102.01,0,0,1,.143,13.079c-.029,1.826-1.05,3.228-3.019,3.132s-2.7-1.621-2.719-3.43c-.04-3.681,0-7.363-.036-11.043-.035-3.192-1.409-4.828-4.013-4.9-2.62-.068-4.315,1.749-4.386,4.914-.081,3.594-.048,7.191-.026,10.786.012,1.919-.525,3.613-2.682,3.655-2.342.047-2.854-1.739-2.849-3.745.008-3.767.046-7.535-.066-11.3a4.035,4.035,0,0,0-2.62-4.059,4.215,4.215,0,0,0-4.356.713,4.5,4.5,0,0,0-1.41,3.7c.019,3.6-.009,7.191,0,10.786.005,1.976-.472,3.668-2.762,3.935-1.771.206-2.968-1.391-3.022-3.97-.061-2.909-.014-5.821-.014-8.732Z" transform="translate(-8.904 -1.46)" fill="url(#linear-gradient)"/>
      <path id="Tracé_71" data-name="Tracé 71" d="M390.971,969.43c0-4.2.009-8.391,0-12.586-.005-1.5.094-2.961,1.581-3.811,1.456-.833,2.63-.248,3.648.86.837.911,1.568.165,2.3-.153a11.957,11.957,0,0,1,13.434,2.01c3.941,3.435,5.416,7.918,3.891,13-1.541,5.134-5.157,8.148-10.465,9.068a10.83,10.83,0,0,1-6.283-.887c-1.989-.885-2.4-.186-2.286,1.655.085,1.365.021,2.739.011,4.109-.014,2.037-.429,3.86-2.907,4.078-1.841.162-2.893-1.3-2.914-3.987C390.945,978.335,390.971,973.882,390.971,969.43Zm5.855-4.191a6.868,6.868,0,1,0,6.772-6.817A6.624,6.624,0,0,0,396.827,965.239Z" transform="translate(-14.809 -1.455)" fill="url(#linear-gradient)"/>
      <path id="Tracé_72" data-name="Tracé 72" d="M332.338,968.226c-2.141,0-4.282-.018-6.422.012-.564.009-1.333-.252-1.623.413-.337.773.4,1.234.857,1.7a7.186,7.186,0,0,0,8.349.914c.521-.289.979-.688,1.476-1.021,1.465-.982,2.954-1.124,4.1.363s.582,2.871-.646,4.1c-5.168,5.17-14.683,4.04-18.928-2.259a12.66,12.66,0,0,1,13.4-19.476,12.755,12.755,0,0,1,9.7,11.036c.285,2.536-.78,3.984-3.332,4.146-2.3.147-4.622.031-6.933.031Zm-2.449-5.864c1.541,0,3.083.021,4.623-.015.4-.009.953-.078,1.142-.335.378-.513-.149-.93-.458-1.315-2.36-2.949-7.789-3.033-10.295-.141-.318.367-.746.931-.659,1.293.178.746.979.489,1.538.5C327.15,962.389,328.52,962.365,329.89,962.362Z" transform="translate(-4.407 -1.462)" fill="url(#linear-gradient)"/>
      <path id="Tracé_73" data-name="Tracé 73" d="M437.783,968.225c-2.058,0-4.116-.027-6.173.021-.626.015-1.555-.362-1.793.494-.19.683.523,1.212,1.006,1.685a7.143,7.143,0,0,0,8.363.794c.588-.348,1.1-.822,1.692-1.165a2.753,2.753,0,0,1,3.9.6c1.032,1.3.6,2.556-.405,3.7-3.278,3.75-10.145,4.665-14.965,1.987a12.679,12.679,0,1,1,18.657-13.487c.728,3.763-.5,5.294-4.367,5.363C441.727,968.252,439.754,968.222,437.783,968.225Zm-2.2-5.867c1.543,0,3.086.012,4.629,0,.971-.01,1.537-.246.843-1.365-2.117-3.419-8.973-3.373-10.978.076-.478.82-.452,1.284.62,1.289C432.321,962.364,433.95,962.358,435.578,962.358Z" transform="translate(-19.311 -1.465)" fill="url(#linear-gradient)"/>
      <path id="Tracé_74" data-name="Tracé 74" d="M466.56,952.607c1.629,0,3.259-.012,4.887,0,1.764.016,3.094.776,3.231,2.613.151,2.027-1.275,2.972-3.064,3.074-2.907.165-5.827.092-8.741.128-1.159.015-2.417.148-2.669,1.49-.344,1.841.938,2.4,2.485,2.424,2.828.046,5.659,0,8.488.036,4.991.059,8.571,3.406,8.58,7.985.009,4.195-3.623,7.548-8.375,7.647-2.828.059-5.659.04-8.488-.015-1.908-.037-3.515-.775-3.513-2.918,0-2.179,1.675-2.818,3.555-2.86,2.742-.06,5.487-.029,8.231-.043,1.382-.007,2.745-.247,2.719-1.975-.025-1.7-1.39-1.947-2.767-1.957-2.915-.021-5.837.1-8.744-.07-4.591-.263-7.7-3.185-7.947-7.227a7.5,7.5,0,0,1,6.231-8.166,38.6,38.6,0,0,1,5.9-.052Z" transform="translate(-23.762 -1.464)" fill="url(#linear-gradient)"/>
      <path id="Tracé_75" data-name="Tracé 75" d="M498.167,976.525a12.922,12.922,0,0,1-12.451-12.409c-.1-2.75-.125-5.5-.121-8.524,0-3.139.053-6.548.062-9.954,0-1.954.818-3.439,2.97-3.411,2.044.026,2.651,1.565,2.816,3.342.509,5.459.512,5.48,5.923,5.545,1.945.023,3.7.268,3.932,2.669.178,1.854-1.27,2.979-3.864,3.144-6.142.391-6.142.391-5.956,6.592.124,4.143,2.343,6.633,6.515,7.188,1.91.254,3.433.932,3.278,3.123S499.463,976.5,498.167,976.525Z" transform="translate(-28.161)" fill="url(#linear-gradient)"/>
      <path id="Tracé_76" data-name="Tracé 76" d="M303.415,948.724c1.421,1.214,2.9,2.365,4.246,3.658,1.364,1.312,2.034,2.931.492,4.5-1.556,1.581-3.067.906-4.444-.489-2.944-2.983-5.923-5.932-8.884-8.9-.928-.93-1.806-1.908-1.282-3.367a3.146,3.146,0,0,1,3.217-2.1c6.334-.035,12.668-.045,19,0,1.827.014,3.3.888,3.3,2.853.005,2.128-1.568,2.892-3.493,2.908-3.839.033-7.679.01-11.519.01Z" transform="translate(-3.618 1.852)" fill="url(#linear-gradient)"/>
      <path id="Tracé_77" data-name="Tracé 77" d="M308.994,970.26c0,2.2.108,3.663-.027,5.1a2.637,2.637,0,0,1-2.9,2.644,2.586,2.586,0,0,1-2.519-2.736,1,1,0,0,1-.011-.256c1.3-5.873-1.89-9.653-6.021-13.054a27.9,27.9,0,0,1-3.406-3.485,2.561,2.561,0,0,1,.273-3.879,2.474,2.474,0,0,1,3.692.022c3.026,2.932,6.027,5.891,9.159,9.1.156.159.5.514.844.869C309.867,966.435,308.677,968.87,308.994,970.26Z" transform="translate(-7.344 -2.039)" stroke="#707070" stroke-width="0.1" fill="url(#linear-gradient)"/>
    </g>
  </g>
</svg>
