<svg xmlns="http://www.w3.org/2000/svg" width="100" height="100" viewBox="0 0 100 100">
  <g id="save_money" transform="translate(-480 -922)">
    <rect id="Rectangle_53" data-name="Rectangle 53" width="100" height="100" transform="translate(480 922)" fill="#fff"/>
    <g id="Groupe_39" data-name="Groupe 39" transform="translate(-1859.001 1064.557)">
      <path id="Tracé_174" data-name="Tracé 174" d="M2398.2-65.491h-.087c-2.933-.037-3.27.478-4.835-2.821a1.1,1.1,0,0,0-1.165-.676q-4.132.037-8.265,0c-.536,0-.918.137-1.08.653-.755,2.405-2.439,3.2-4.831,2.857a13.509,13.509,0,0,0-1.825-.013,2.524,2.524,0,0,1-2.831-2.761c-.039-1.158-.042-2.319,0-3.477a1.707,1.707,0,0,0-.744-1.54,19.129,19.129,0,0,1-5.989-7.973,1.321,1.321,0,0,0-1.56-.989,4.866,4.866,0,0,1-1.554-.124,2.968,2.968,0,0,1-2.411-2.9q-.035-3.565,0-7.13a2.856,2.856,0,0,1,2.99-2.944c1.55.1,2.451-.3,2.908-1.884a10.775,10.775,0,0,1,2.011-3.436,2.076,2.076,0,0,0,.444-1.363c-.016-1.913-.013-3.826,0-5.739.009-2.184,1.625-3.081,3.531-1.969,1.127.657,2.251,1.319,3.384,1.966.848.484.89.454.916-.491a11.607,11.607,0,0,1,10.289-11.237,11.684,11.684,0,0,1,12.9,9.082,11.364,11.364,0,0,1,.239,3.283,1.141,1.141,0,0,0,.634,1.194,19.757,19.757,0,0,1,9.308,12.972c.166.731.233,1.486.334,2.231.039.286,0,.659.374.692a3.951,3.951,0,0,0,2.466-.255,1.511,1.511,0,0,0-.1-2.641,2.256,2.256,0,0,0-.739-.228,1.139,1.139,0,0,1-1.117-1.287,1.224,1.224,0,0,1,1.433-1.072,3.918,3.918,0,0,1,3.458,2.756,3.962,3.962,0,0,1-1.27,4.238,4.483,4.483,0,0,1-3.273.9c-.813-.065-1.174.108-1.293,1.083a19.38,19.38,0,0,1-7.352,13.245,1.85,1.85,0,0,0-.8,1.691c.05,1.128.031,2.261.007,3.39a2.45,2.45,0,0,1-2.762,2.715C2399.359-65.488,2398.78-65.491,2398.2-65.491Zm-22.461-5.368c0,.667.038,1.336-.01,2-.054.735.174,1.075.969,1.017a19.9,19.9,0,0,1,2.348,0,1.067,1.067,0,0,0,1.157-.7c.321-.712.7-1.4,1.066-2.09a1.535,1.535,0,0,1,1.659-.8,95.5,95.5,0,0,0,10.082.011c.943-.046,1.606.168,1.845,1.017.648,2.3,2.179,2.876,4.378,2.588.806-.105,1.043-.334,1.018-1.1-.042-1.274,0-2.55-.015-3.825a1.969,1.969,0,0,1,.909-1.756,16.79,16.79,0,0,0,7.262-11.97c.854-7.12-1.815-12.737-7.6-16.91-.235-.17-.523-.686-.928-.207-.585.691-.694,1.584-.273,1.964a18.432,18.432,0,0,1,1.471,1.348,1.108,1.108,0,0,1,0,1.581,1.148,1.148,0,0,1-1.581.119,4.325,4.325,0,0,1-.522-.458,14.6,14.6,0,0,0-12.213-3.738,14.619,14.619,0,0,0-8.077,3.925c-.692.64-1.434.686-1.912.154a1.341,1.341,0,0,1,.312-1.914,15.812,15.812,0,0,1,1.257-1.071.508.508,0,0,0,.173-.735c-.51-1.093-.8-2.22-2.258-2.673a19.7,19.7,0,0,1-3.558-1.983c-.263-.149-.527-.506-.839-.314-.253.155-.111.538-.113.818-.01,1.768-.014,3.536,0,5.3a2.149,2.149,0,0,1-.466,1.45,16.725,16.725,0,0,0-3.033,5.629,1.513,1.513,0,0,1-1.61,1.176c-.783-.007-1.566,0-2.349.006a.8.8,0,0,0-.912.9c0,.261-.006.522,0,.783.01,1.224-.16,1.362,1.234,1.342a1.179,1.179,0,0,1,1.348,1.151,1.318,1.318,0,0,1-1.356,1.2c-1.227.091-1.227.091-1.226,1.352,0,.2.01.406,0,.609-.021.656.306.959.949.961.783,0,1.566.006,2.349.016a1.534,1.534,0,0,1,1.581,1.215,15.382,15.382,0,0,0,5.439,8C2375.394-74.212,2376.148-72.881,2375.739-70.858Zm12.994-46.32a6.489,6.489,0,0,0-2.373.356,9.354,9.354,0,0,0-5.962,12.849c.267.573.556.625,1.078.358a11.7,11.7,0,0,1,3.092-1.133c.712-.138,1-.367.709-1.142a1.223,1.223,0,0,1,.436-1.48,1.151,1.151,0,0,1,1.236-.09c.471.227.563.685.686,1.144.214.8.83.986,1.563.888a1,1,0,0,0,1-1.01c-.005-.76-.608-.98-1.229-1.123a2.427,2.427,0,0,0-.346-.029,3.538,3.538,0,0,1-3.323-2.7,3.333,3.333,0,0,1,1.7-3.667,2.113,2.113,0,0,0,.876-.909,1.131,1.131,0,0,1,2.029-.094,2.828,2.828,0,0,0,1.137,1.127,3.17,3.17,0,0,1,1.566,2.745,1.1,1.1,0,0,1-1.011,1.211,1.122,1.122,0,0,1-1.3-.891,3.565,3.565,0,0,0-.156-.584,1.288,1.288,0,0,0-1.609-.676c-.525.13-.937.461-.9,1.022.053.722.587,1.013,1.266,1.064.174.013.348.017.52.044a3.537,3.537,0,0,1,3.1,4.222c-.1.534.057.744.541.858a12.626,12.626,0,0,1,3.185,1.134c.722.395,1.008.155,1.289-.512A9.37,9.37,0,0,0,2388.732-117.179Z" transform="translate(0 0)" fill="#008297"/>
      <path id="Tracé_175" data-name="Tracé 175" d="M2404.707-37.98a1.156,1.156,0,0,1-1.169-1.148A1.228,1.228,0,0,1,2404.7-40.3a1.236,1.236,0,0,1,1.173,1.175A1.157,1.157,0,0,1,2404.707-37.98Z" transform="translate(-30.178 -56.227)" fill="#008297"/>
    </g>
    <line id="Ligne_1" data-name="Ligne 1" x2="61" transform="translate(498.5 999.5)" fill="none" stroke="#129cad" stroke-linecap="round" stroke-width="1"/>
  </g>
</svg>
