<svg xmlns="http://www.w3.org/2000/svg" width="652.584" height="732.033" viewBox="0 0 652.584 732.033">
  <g id="squares_falling" transform="translate(39 -109.967)">
    <g id="Groupe_44" data-name="Groupe 44" transform="matrix(0.719, 0.695, -0.695, 0.719, 237.894, 230.711)">
      <g id="Groupe_37" data-name="Groupe 37">
        <g id="Tracé_153" data-name="Tracé 153" transform="translate(118 111)">
          <path id="Tracé_150" data-name="Tracé 150" d="M167.134,192.5H56.866L1.732,97,56.866,1.5H167.134L222.268,97Z" fill="rgba(18,156,173,0.52)"/>
          <path id="Tracé_151" data-name="Tracé 151" d="M57.732,3,3.464,97l54.268,94H166.268l54.268-94L166.268,3H57.732M56,0H168l56,97-56,97H56L0,97Z" fill="#fff"/>
        </g>
        <path id="Tracé_151-2" data-name="Tracé 151" d="M9154.97,3416h110.353l54.743-96.292" transform="translate(-9034 -3209)" fill="none" stroke="#fff" stroke-width="3"/>
        <path id="Tracé_152" data-name="Tracé 152" d="M9264,3416l55.2,94.735" transform="translate(-9034 -3209)" fill="none" stroke="#fff" stroke-width="3"/>
      </g>
    </g>
    <g id="Groupe_38" data-name="Groupe 38">
      <g id="Groupe_37-2" data-name="Groupe 37">
        <g id="Tracé_153-2" data-name="Tracé 153" transform="translate(118 111)">
          <path id="Tracé_152-2" data-name="Tracé 152" d="M167.134,192.5H56.866L1.732,97,56.866,1.5H167.134L222.268,97Z" fill="#008297"/>
          <path id="Tracé_153-3" data-name="Tracé 153" d="M57.732,3,3.464,97l54.268,94H166.268l54.268-94L166.268,3H57.732M56,0H168l56,97-56,97H56L0,97Z" fill="#129cad"/>
        </g>
        <path id="Tracé_151-3" data-name="Tracé 151" d="M9154.97,3416h110.353l54.743-96.292" transform="translate(-9034 -3209)" fill="none" stroke="#129cad" stroke-width="3"/>
        <path id="Tracé_152-3" data-name="Tracé 152" d="M9264,3416l55.2,94.735" transform="translate(-9034 -3209)" fill="none" stroke="#129cad" stroke-width="3"/>
      </g>
    </g>
    <g id="Groupe_39" data-name="Groupe 39" transform="translate(-38 169.577)">
      <g id="Groupe_37-3" data-name="Groupe 37">
        <g id="Tracé_153-4" data-name="Tracé 153" transform="translate(118 111)">
          <path id="Tracé_154" data-name="Tracé 154" d="M167.134,192.5H56.866L1.732,97,56.866,1.5H167.134L222.268,97Z" fill="#19a998"/>
          <path id="Tracé_155" data-name="Tracé 155" d="M57.732,3,3.464,97l54.268,94H166.268l54.268-94L166.268,3H57.732M56,0H168l56,97-56,97H56L0,97Z" fill="#129cad"/>
        </g>
        <path id="Tracé_151-4" data-name="Tracé 151" d="M9154.97,3416h110.353l54.743-96.292" transform="translate(-9034 -3209)" fill="none" stroke="#129cad" stroke-width="3"/>
        <path id="Tracé_152-4" data-name="Tracé 152" d="M9264,3416l55.2,94.735" transform="translate(-9034 -3209)" fill="none" stroke="#129cad" stroke-width="3"/>
      </g>
    </g>
    <g id="Groupe_40" data-name="Groupe 40" transform="matrix(0.934, -0.358, 0.358, 0.934, 4.583, 599.545)">
      <g id="Groupe_37-4" data-name="Groupe 37">
        <g id="Tracé_153-5" data-name="Tracé 153" transform="translate(118 111)">
          <path id="Tracé_156" data-name="Tracé 156" d="M167.134,192.5H56.866L1.732,97,56.866,1.5H167.134L222.268,97Z" fill="#19a998"/>
          <path id="Tracé_157" data-name="Tracé 157" d="M57.732,3,3.464,97l54.268,94H166.268l54.268-94L166.268,3H57.732M56,0H168l56,97-56,97H56L0,97Z" fill="#129cad"/>
        </g>
        <path id="Tracé_151-5" data-name="Tracé 151" d="M9154.97,3416h110.353l54.743-96.292" transform="translate(-9034 -3209)" fill="none" stroke="#129cad" stroke-width="3"/>
        <path id="Tracé_152-5" data-name="Tracé 152" d="M9264,3416l55.2,94.735" transform="translate(-9034 -3209)" fill="none" stroke="#129cad" stroke-width="3"/>
      </g>
    </g>
    <g id="Groupe_41" data-name="Groupe 41" transform="matrix(-0.342, 0.94, -0.94, -0.342, 758.248, 171.633)">
      <g id="Groupe_37-5" data-name="Groupe 37">
        <g id="Tracé_153-6" data-name="Tracé 153" transform="translate(118 111)">
          <path id="Tracé_158" data-name="Tracé 158" d="M167.134,192.5H56.866L1.732,97,56.866,1.5H167.134L222.268,97Z" fill="#008297"/>
          <path id="Tracé_159" data-name="Tracé 159" d="M57.732,3,3.464,97l54.268,94H166.268l54.268-94L166.268,3H57.732M56,0H168l56,97-56,97H56L0,97Z" fill="#129cad"/>
        </g>
        <path id="Tracé_151-6" data-name="Tracé 151" d="M9154.97,3416h110.353l54.743-96.292" transform="translate(-9034 -3209)" fill="none" stroke="#129cad" stroke-width="3"/>
        <path id="Tracé_152-6" data-name="Tracé 152" d="M9264,3416l55.2,94.735" transform="translate(-9034 -3209)" fill="none" stroke="#129cad" stroke-width="3"/>
      </g>
    </g>
    <g id="Groupe_42" data-name="Groupe 42" transform="matrix(0.515, 0.857, -0.857, 0.515, 512.456, 229.616)">
      <g id="Groupe_37-6" data-name="Groupe 37">
        <g id="Tracé_153-7" data-name="Tracé 153" transform="translate(118 111)">
          <path id="Tracé_160" data-name="Tracé 160" d="M167.134,192.5H56.866L1.732,97,56.866,1.5H167.134L222.268,97Z" fill="#008297"/>
          <path id="Tracé_161" data-name="Tracé 161" d="M57.732,3,3.464,97l54.268,94H166.268l54.268-94L166.268,3H57.732M56,0H168l56,97-56,97H56L0,97Z" fill="#129cad"/>
        </g>
        <path id="Tracé_151-7" data-name="Tracé 151" d="M9154.97,3416h110.353l54.743-96.292" transform="translate(-9034 -3209)" fill="none" stroke="#129cad" stroke-width="3"/>
        <path id="Tracé_152-7" data-name="Tracé 152" d="M9264,3416l55.2,94.735" transform="translate(-9034 -3209)" fill="none" stroke="#129cad" stroke-width="3"/>
      </g>
    </g>
    <rect id="Rectangle_51" data-name="Rectangle 51" width="255" height="701" transform="translate(-39 123.708)" fill="rgba(255,255,255,0)"/>
  </g>
</svg>
