<svg xmlns="http://www.w3.org/2000/svg" xmlns:xlink="http://www.w3.org/1999/xlink" width="217.983" height="50.186" viewBox="0 0 217.983 50.186">
  <defs>
    <linearGradient id="linear-gradient" x1="1.199" y1="0.217" x2="1.108" y2="1.354" gradientUnits="objectBoundingBox">
      <stop offset="0" stop-color="#ef3e3e"/>
      <stop offset="1" stop-color="#c09418"/>
    </linearGradient>
  </defs>
  <g id="Tempest_logo_fire" transform="translate(-285.912 -942.227)">
    <path id="Tracé_70" data-name="Tracé 70" d="M349.149,967.218c0-3.388-.1-6.78.026-10.165.136-3.8,1.772-4.886,5.4-3.679a3.221,3.221,0,0,0,2.3-.078,11.1,11.1,0,0,1,10.291,1.3c1.422.912,2.411.708,3.78-.085,7.865-4.552,16.565-.436,17.591,8.595.571,5.02.246,10.15.166,15.228-.034,2.126-1.222,3.758-3.515,3.647-2.309-.112-3.142-1.887-3.166-3.993-.047-4.286,0-8.572-.042-12.857-.041-3.716-1.64-5.621-4.672-5.7-3.05-.079-5.024,2.036-5.106,5.721-.094,4.184-.056,8.372-.03,12.558.014,2.234-.611,4.206-3.123,4.256-2.727.055-3.323-2.025-3.317-4.36.009-4.386.054-8.773-.077-13.155-.063-2.08-.877-3.974-3.05-4.726a4.907,4.907,0,0,0-5.071.83,5.234,5.234,0,0,0-1.642,4.313c.022,4.186-.011,8.372,0,12.558.006,2.3-.55,4.271-3.216,4.581-2.062.24-3.455-1.62-3.518-4.622-.071-3.387-.016-6.777-.016-10.166Z" fill="url(#linear-gradient)"/>
    <path id="Tracé_71" data-name="Tracé 71" d="M390.973,972.205c0-4.885.01-9.77-.005-14.654-.006-1.749.109-3.447,1.841-4.437,1.7-.97,3.062-.289,4.247,1,.975,1.061,1.825.192,2.682-.178,5.706-2.467,11.039-1.671,15.641,2.34s6.306,9.219,4.53,15.138c-1.794,5.977-6,9.487-12.184,10.557a12.608,12.608,0,0,1-7.315-1.033c-2.316-1.03-2.8-.216-2.661,1.927.1,1.589.024,3.189.013,4.784-.016,2.372-.5,4.494-3.385,4.748-2.144.189-3.368-1.509-3.393-4.642C390.942,982.573,390.972,977.389,390.973,972.205Zm6.817-4.879a8,8,0,1,0,7.885-7.937A7.712,7.712,0,0,0,397.79,967.326Z" fill="url(#linear-gradient)"/>
    <path id="Tracé_72" data-name="Tracé 72" d="M334.818,970.795c-2.493,0-4.985-.021-7.477.014-.657.01-1.552-.293-1.89.481-.392.9.46,1.437,1,1.976a8.366,8.366,0,0,0,9.72,1.064c.606-.337,1.14-.8,1.718-1.189,1.706-1.143,3.439-1.309,4.777.423s.678,3.343-.752,4.773c-6.017,6.019-17.1,4.7-22.037-2.63a14.74,14.74,0,0,1,15.6-22.675,14.85,14.85,0,0,1,11.3,12.849c.332,2.953-.908,4.638-3.88,4.827-2.681.171-5.381.036-8.072.036Zm-2.851-6.827c1.794,0,3.589.025,5.382-.017.46-.011,1.11-.091,1.33-.39.44-.6-.174-1.083-.533-1.531-2.748-3.433-9.068-3.531-11.986-.164-.37.427-.868,1.084-.767,1.506.207.869,1.14.569,1.791.585C328.777,964,330.373,963.971,331.967,963.968Z" fill="url(#linear-gradient)"/>
    <path id="Tracé_73" data-name="Tracé 73" d="M440.233,970.79c-2.4,0-4.792-.031-7.187.024-.729.017-1.81-.422-2.088.575-.221.8.609,1.411,1.171,1.962a8.316,8.316,0,0,0,9.737.925c.685-.405,1.283-.957,1.97-1.356,1.683-.975,3.3-.881,4.542.694,1.2,1.518.7,2.976-.472,4.312-3.817,4.366-11.812,5.431-17.423,2.313a14.762,14.762,0,1,1,21.722-15.7c.848,4.381-.587,6.164-5.085,6.244C444.825,970.821,442.528,970.787,440.233,970.79Zm-2.567-6.831c1.8,0,3.593.014,5.389,0,1.131-.012,1.789-.286.982-1.589-2.465-3.98-10.447-3.927-12.781.089-.556.955-.526,1.495.722,1.5C433.874,963.966,435.77,963.959,437.666,963.959Z" fill="url(#linear-gradient)"/>
    <path id="Tracé_74" data-name="Tracé 74" d="M468.556,952.608c1.9,0,3.794-.014,5.69,0,2.054.019,3.6.9,3.762,3.042.176,2.36-1.485,3.46-3.567,3.579-3.384.192-6.784.107-10.177.149-1.35.017-2.814.172-3.107,1.735-.4,2.143,1.092,2.793,2.893,2.822,3.293.054,6.589,0,9.882.042,5.811.069,9.979,3.965,9.989,9.3.01,4.884-4.218,8.788-9.751,8.9-3.293.069-6.589.047-9.882-.017-2.221-.043-4.092-.9-4.09-3.4,0-2.537,1.95-3.281,4.139-3.33,3.193-.07,6.388-.034,9.583-.05,1.609-.008,3.2-.288,3.166-2.3-.029-1.979-1.618-2.267-3.221-2.279-3.394-.024-6.8.113-10.18-.081-5.345-.306-8.965-3.708-9.253-8.414a8.735,8.735,0,0,1,7.255-9.508,44.947,44.947,0,0,1,6.869-.06Z" fill="url(#linear-gradient)"/>
    <path id="Tracé_75" data-name="Tracé 75" d="M500.232,982.159a15.045,15.045,0,0,1-14.5-14.447c-.116-3.2-.146-6.407-.141-9.924,0-3.655.062-7.623.072-11.589.005-2.275.952-4,3.458-3.971,2.38.03,3.087,1.822,3.279,3.891.593,6.356.6,6.38,6.9,6.456,2.264.027,4.311.312,4.578,3.107.207,2.159-1.479,3.469-4.5,3.661-7.151.455-7.151.455-6.934,7.675.144,4.823,2.728,7.723,7.585,8.369,2.224.3,4,1.085,3.816,3.636S501.741,982.128,500.232,982.159Z" fill="url(#linear-gradient)"/>
    <path id="Tracé_76" data-name="Tracé 76" d="M305.063,949.83c1.654,1.413,3.378,2.754,4.943,4.259,1.588,1.527,2.368,3.412.573,5.235-1.812,1.841-3.571,1.055-5.174-.569-3.428-3.473-6.9-6.907-10.343-10.36-1.081-1.083-2.1-2.221-1.493-3.92a3.663,3.663,0,0,1,3.746-2.449q11.061-.062,22.123,0c2.127.016,3.838,1.034,3.845,3.322.006,2.478-1.825,3.367-4.067,3.386-4.47.038-8.941.011-13.411.011Z" transform="translate(-3 2.117)" fill="url(#linear-gradient)"/>
    <path id="Tracé_77" data-name="Tracé 77" d="M311.564,972.967c0,2.561.126,4.265-.032,5.943a3.07,3.07,0,0,1-3.372,3.078,3.011,3.011,0,0,1-2.933-3.186,1.158,1.158,0,0,1-.013-.3c1.508-6.838-2.2-11.239-7.01-15.2a32.5,32.5,0,0,1-3.965-4.058,2.981,2.981,0,0,1,.318-4.516,2.881,2.881,0,0,1,4.3.026c3.523,3.414,7.017,6.858,10.664,10.594.181.186.582.6.982,1.012C312.58,968.514,311.2,971.348,311.564,972.967Z" transform="translate(-7.344 -0.476)" stroke="#707070" stroke-width="0.1" fill="url(#linear-gradient)"/>
  </g>
</svg>
