<svg xmlns="http://www.w3.org/2000/svg" width="271" height="147" viewBox="0 0 271 147">
  <g id="umbrella_walking" transform="translate(-842 -892)">
    <rect id="Rectangle_57" data-name="Rectangle 57" width="271" height="147" transform="translate(842 892)" fill="rgba(255,255,255,0)"/>
    <g id="umbrella_walking-2" data-name="umbrella_walking" transform="translate(150.123 151.901)">
      <g id="Groupe_40" data-name="Groupe 40" transform="translate(779.91 769.852)">
        <rect id="Rectangle_54" data-name="Rectangle 54" width="0.656" height="57.797" transform="translate(31.271 0.337) rotate(-30.93)" fill="#000019"/>
        <path id="Tracé_176" data-name="Tracé 176" d="M245.05,156.49l3.9,1.283V152.16h-3.538Z" transform="translate(-204.857 -127.2)" fill="#f3a3a6"/>
        <circle id="Ellipse_11" data-name="Ellipse 11" cx="3.886" cy="3.886" r="3.886" transform="translate(39.724 18.742)" fill="#f3a3a6"/>
        <path id="Tracé_177" data-name="Tracé 177" d="M239.506,110.824l.535.65.969-1.7s1.237.064,1.237-.855,1.135-.943,1.135-.943,1.606-2.8-1.721-2.065c0,0-2.308-1.581-3.454-.23,0,0-3.518,1.771-2.511,4.857l1.673,3.18.379-.72s-.23-3.021,1.76-2.18Z" transform="translate(-196.886 -87.891)" fill="#2f2e43"/>
        <rect id="Rectangle_55" data-name="Rectangle 55" width="3.435" height="4.873" transform="translate(49.412 91.571) rotate(180)" fill="#f3a3a6"/>
        <path id="Tracé_178" data-name="Tracé 178" d="M279.978,547.754c-.587.052-3.526.285-3.674-.389a2.889,2.889,0,0,1,.092-1.353c.282-2.811.387-2.842.451-2.86.1-.03.392.11.866.415l.03.02.007.034a1.08,1.08,0,0,0,1.214.917,1.788,1.788,0,0,0,.974-.333.42.42,0,0,1-.18-.151.528.528,0,0,1-.038-.44,6.83,6.83,0,0,1,.528-1.186l.044-.079,3.9,2.634,2.411.689a.621.621,0,0,1,.4.356h0a.622.622,0,0,1-.157.7,4.285,4.285,0,0,1-2.221,1.151c-.243.023-.564.031-.925.031-1.507,0-3.708-.156-3.725-.159Z" transform="translate(-230.946 -453.392)" fill="#129cad"/>
        <rect id="Rectangle_56" data-name="Rectangle 56" width="3.435" height="4.873" transform="matrix(-0.793, -0.609, 0.609, -0.793, 34.781, 86.367)" fill="#f3a3a6"/>
        <path id="Tracé_179" data-name="Tracé 179" d="M186.065,510.29c-.5-.315-2.972-1.921-2.678-2.544a2.841,2.841,0,0,1,.9-1.017c1.935-2.058,2.037-2.019,2.1-2,.1.038.244.325.435.856l.011.033-.016.031a1.083,1.083,0,0,0,.4,1.466,1.8,1.8,0,0,0,.976.33.415.415,0,0,1-.051-.23.529.529,0,0,1,.238-.372,6.936,6.936,0,0,1,1.142-.62l.082-.036,1.494,4.466,1.494,2.014a.619.619,0,0,1,.1.528h0a.619.619,0,0,1-.553.461,4.286,4.286,0,0,1-2.462-.438c-.205-.13-.466-.318-.753-.538-1.2-.918-2.847-2.381-2.859-2.393Z" transform="translate(-153.288 -421.94)" fill="#129cad"/>
        <path id="Tracé_180" data-name="Tracé 180" d="M0,575.265a.2.2,0,0,0,.2.2H87.988a.2.2,0,0,0,0-.39H.2A.2.2,0,0,0,0,575.265Z" transform="translate(0 -480.745)" fill="#2f2e43"/>
        <path id="Tracé_181" data-name="Tracé 181" d="M223.83,315.16l-12.967,1.324s-1.852,6.087.794,9l1.588,8.2-7.145,9.792,4.5,2.911,6.351-6.881v11.644l6.087-.53,2.911-18.26Z" transform="translate(-172.296 -263.465)" fill="#008297"/>
        <path id="Tracé_182" data-name="Tracé 182" d="M228.8,164.946s-1.058-1.852-5.557-1.588l-1.058,2.382s-3.175.794-3.175,5.557,1.588,19.054,1.588,19.054l15.482-.927-7.161-22.384-.116-2.1Z" transform="translate(-183.088 -136.541)" fill="#19a998"/>
        <path id="Tracé_183" data-name="Tracé 183" d="M181.585,21.165a25.715,25.715,0,0,0,.712,10.884l17.028-8.967c-.3-.353-.6-.7-.917-1.033a23.948,23.948,0,0,0-9.224-6.039,39.256,39.256,0,0,0-3.994,2c-1.247.712-2.388,1.435-3.435,2.163q-.1.495-.171.991Z" transform="translate(-151.565 -13.382)" fill="#19a998"/>
        <path id="Tracé_184" data-name="Tracé 184" d="M234.776,4.048a24.428,24.428,0,0,1,5.47,3.461,23.952,23.952,0,0,1,3.061,3.07l11.252-5.924s-7.815-6.61-21.178-1.189c.471.18.937.374,1.394.584Z" transform="translate(-195.101 -1.11)" fill="#19a998"/>
        <path id="Tracé_185" data-name="Tracé 185" d="M125.694,54.1a26.29,26.29,0,0,1-.284-10.241c-11.937,8.608-10.8,17.744-10.8,17.744l11.467-6.038c-.141-.484-.272-.971-.385-1.463Z" transform="translate(-95.788 -36.664)" fill="#19a998"/>
        <path id="uuid-215a2cca-fbee-4bbc-9bf2-8b7e67129ed8" d="M331.7,263.567c1.012.466,1.578,1.381,1.265,2.045s-1.389.825-2.4.361a2.683,2.683,0,0,1-1.037-.812l-4.263-2.027,1.05-2.044,4.092,2.216a2.732,2.732,0,0,1,1.3.261h0Z" transform="translate(-271.911 -218.264)" fill="#f3a3a6"/>
        <path id="Tracé_186" data-name="Tracé 186" d="M250.661,202.6l-10.291-3.361-.011-.011-7.838-7.253a3.229,3.229,0,1,1,4.67-4.443l5.887,7.03,8.478,5.508Z" transform="translate(-193.517 -155.806)" fill="#19a998"/>
      </g>
      <g id="Groupe_41" data-name="Groupe 41" transform="translate(744.877 802.849) rotate(-60)">
        <g id="Polygone_17" data-name="Polygone 17" transform="translate(19.542 11.425)" fill="rgba(255,255,255,0)">
          <path d="M 18.90113639831543 21.3492431640625 L 7.455665111541748 21.3492431640625 L 1.731605768203735 11.4246244430542 L 7.455674648284912 1.500003457069397 L 18.90113639831543 1.500003457069397 L 24.62521362304688 11.42462348937988 L 18.90113639831543 21.3492431640625 Z" stroke="none"/>
          <path d="M 8.322153091430664 3.000003814697266 L 3.463207244873047 11.4246244430542 L 8.3221435546875 19.8492431640625 L 18.0346565246582 19.8492431640625 L 22.89359283447266 11.42462348937988 L 18.0346565246582 3.000003814697266 L 8.322153091430664 3.000003814697266 M 6.589204788208008 3.814697265625e-06 L 19.76760482788086 3.814697265625e-06 L 26.35680389404297 11.42462348937988 L 19.76760482788086 22.8492431640625 L 6.589195251464844 22.8492431640625 L -5.7220458984375e-06 11.42462348937988 L 6.589204788208008 3.814697265625e-06 Z" stroke="none" fill="#19a998"/>
        </g>
        <g id="Polygone_18" data-name="Polygone 18" transform="translate(0 22.849)" fill="rgba(255,255,255,0)">
          <path d="M 18.90113639831543 21.3492431640625 L 7.455665111541748 21.3492431640625 L 1.731605768203735 11.4246244430542 L 7.455674648284912 1.500003457069397 L 18.90113639831543 1.500003457069397 L 24.62521362304688 11.42462348937988 L 18.90113639831543 21.3492431640625 Z" stroke="none"/>
          <path d="M 8.322153091430664 3.000003814697266 L 3.463207244873047 11.4246244430542 L 8.3221435546875 19.8492431640625 L 18.0346565246582 19.8492431640625 L 22.89359283447266 11.42462348937988 L 18.0346565246582 3.000003814697266 L 8.322153091430664 3.000003814697266 M 6.589204788208008 3.814697265625e-06 L 19.76760482788086 3.814697265625e-06 L 26.35680389404297 11.42462348937988 L 19.76760482788086 22.8492431640625 L 6.589195251464844 22.8492431640625 L -5.7220458984375e-06 11.42462348937988 L 6.589204788208008 3.814697265625e-06 Z" stroke="none" fill="#19a998"/>
        </g>
        <g id="Polygone_19" data-name="Polygone 19" transform="translate(0 0)" fill="rgba(255,255,255,0)">
          <path d="M 18.90113639831543 21.3492431640625 L 7.455665111541748 21.3492431640625 L 1.731605768203735 11.4246244430542 L 7.455674648284912 1.500003457069397 L 18.90113639831543 1.500003457069397 L 24.62521362304688 11.42462348937988 L 18.90113639831543 21.3492431640625 Z" stroke="none"/>
          <path d="M 8.322153091430664 3.000003814697266 L 3.463207244873047 11.4246244430542 L 8.3221435546875 19.8492431640625 L 18.0346565246582 19.8492431640625 L 22.89359283447266 11.42462348937988 L 18.0346565246582 3.000003814697266 L 8.322153091430664 3.000003814697266 M 6.589204788208008 3.814697265625e-06 L 19.76760482788086 3.814697265625e-06 L 26.35680389404297 11.42462348937988 L 19.76760482788086 22.8492431640625 L 6.589195251464844 22.8492431640625 L -5.7220458984375e-06 11.42462348937988 L 6.589204788208008 3.814697265625e-06 Z" stroke="none" fill="#19a998"/>
        </g>
      </g>
      <g id="Groupe_42" data-name="Groupe 42" transform="translate(854.847 805.502) rotate(-14)">
        <g id="Polygone_17-2" data-name="Polygone 17" transform="translate(19.542 11.425)" fill="rgba(255,255,255,0)">
          <path d="M 18.90113639831543 21.3492431640625 L 7.455674648284912 21.3492431640625 L 1.731606125831604 11.42462348937988 L 7.455674648284912 1.500003457069397 L 18.90113639831543 1.500003457069397 L 24.62521362304688 11.42462348937988 L 18.90113639831543 21.3492431640625 Z" stroke="none"/>
          <path d="M 8.322153091430664 3.000003814697266 L 3.46320915222168 11.42462348937988 L 8.322153091430664 19.8492431640625 L 18.0346565246582 19.8492431640625 L 22.89359283447266 11.42462348937988 L 18.0346565246582 3.000003814697266 L 8.322153091430664 3.000003814697266 M 6.589204788208008 3.814697265625e-06 L 19.76760482788086 3.814697265625e-06 L 26.35680389404297 11.42462348937988 L 19.76760482788086 22.8492431640625 L 6.589204788208008 22.8492431640625 L -5.7220458984375e-06 11.42462348937988 L 6.589204788208008 3.814697265625e-06 Z" stroke="none" fill="#129cad"/>
        </g>
        <g id="Polygone_18-2" data-name="Polygone 18" transform="translate(0 22.849)" fill="rgba(255,255,255,0)">
          <path d="M 18.90113639831543 21.3492431640625 L 7.455674648284912 21.3492431640625 L 1.731606125831604 11.42462348937988 L 7.455674648284912 1.500003457069397 L 18.90113639831543 1.500003457069397 L 24.62521362304688 11.42462348937988 L 18.90113639831543 21.3492431640625 Z" stroke="none"/>
          <path d="M 8.322153091430664 3.000003814697266 L 3.46320915222168 11.42462348937988 L 8.322153091430664 19.8492431640625 L 18.0346565246582 19.8492431640625 L 22.89359283447266 11.42462348937988 L 18.0346565246582 3.000003814697266 L 8.322153091430664 3.000003814697266 M 6.589204788208008 3.814697265625e-06 L 19.76760482788086 3.814697265625e-06 L 26.35680389404297 11.42462348937988 L 19.76760482788086 22.8492431640625 L 6.589204788208008 22.8492431640625 L -5.7220458984375e-06 11.42462348937988 L 6.589204788208008 3.814697265625e-06 Z" stroke="none" fill="#129cad"/>
        </g>
        <g id="Polygone_19-2" data-name="Polygone 19" fill="rgba(255,255,255,0)">
          <path d="M 18.90113639831543 21.3492431640625 L 7.455674648284912 21.3492431640625 L 1.731606125831604 11.42462348937988 L 7.455674648284912 1.500003457069397 L 18.90113639831543 1.500003457069397 L 24.62521362304688 11.42462348937988 L 18.90113639831543 21.3492431640625 Z" stroke="none"/>
          <path d="M 8.322153091430664 3.000003814697266 L 3.46320915222168 11.42462348937988 L 8.322153091430664 19.8492431640625 L 18.0346565246582 19.8492431640625 L 22.89359283447266 11.42462348937988 L 18.0346565246582 3.000003814697266 L 8.322153091430664 3.000003814697266 M 6.589204788208008 3.814697265625e-06 L 19.76760482788086 3.814697265625e-06 L 26.35680389404297 11.42462348937988 L 19.76760482788086 22.8492431640625 L 6.589204788208008 22.8492431640625 L -5.7220458984375e-06 11.42462348937988 L 6.589204788208008 3.814697265625e-06 Z" stroke="none" fill="#129cad"/>
        </g>
      </g>
    </g>
  </g>
</svg>
